/* XPM */
static char *_fcb6f4af6f14017eda1a2d76e430fcfXQoJM3ys1P9iFKW3[] = {
/* columns rows colors chars-per-pixel */
"64 64 248 2 ",
"   c #151515",
".  c #1D1D1D",
"X  c #380A04",
"o  c #242424",
"O  c #292826",
"+  c #2C2C2C",
"@  c #31302E",
"#  c #343434",
"$  c #383736",
"%  c #3C3C3B",
"&  c #430000",
"*  c #4D0301",
"=  c #490C0A",
"-  c #540301",
";  c #5B0402",
":  c #570907",
">  c #5D0C0C",
",  c #49160A",
"<  c #55140B",
"1  c #5C130D",
"2  c #570B12",
"3  c #4E1A11",
"4  c #5B1817",
"5  c #620301",
"6  c #6C0301",
"7  c #640B04",
"8  c #6B0A02",
"9  c #68030B",
"0  c #630D0A",
"q  c #6C0C0C",
"w  c #750101",
"e  c #7B0301",
"r  c #790A07",
"t  c #730B0A",
"y  c #63130D",
"u  c #6D120D",
"i  c #6A1808",
"p  c #72120D",
"a  c #7A150B",
"s  c #650C13",
"d  c #6B0C12",
"f  c #790D15",
"g  c #651412",
"h  c #6B1314",
"j  c #6C1A15",
"k  c #671919",
"l  c #641B19",
"z  c #731414",
"x  c #7C1414",
"c  c #741B14",
"v  c #741C1B",
"b  c #791919",
"n  c #512A16",
"m  c #5D211E",
"M  c #6A221B",
"N  c #79251A",
"B  c #731E23",
"V  c #592322",
"C  c #403F3E",
"Z  c #682727",
"A  c #772726",
"S  c #7A342B",
"D  c #752A31",
"F  c #6C3A36",
"G  c #793835",
"H  c #42413F",
"J  c #76423C",
"K  c #753B44",
"L  c #434343",
"P  c #484745",
"I  c #4A4947",
"U  c #4B4B4B",
"Y  c #504F4E",
"T  c #535353",
"R  c #585756",
"E  c #5B5B5B",
"W  c #7A4546",
"Q  c #7D524C",
"!  c #605F5E",
"~  c #636363",
"^  c #6C6C6B",
"/  c #72716F",
"(  c #767575",
")  c #840202",
"_  c #8B0303",
"`  c #850D05",
"'  c #820C0C",
"]  c #890908",
"[  c #8B0D0B",
"{  c #950505",
"}  c #930D0C",
"|  c #9C0B0B",
" . c #8B140D",
".. c #85180C",
"X. c #93140C",
"o. c #9B140E",
"O. c #9A180C",
"+. c #8A0C13",
"@. c #980D11",
"#. c #841414",
"$. c #8B1514",
"%. c #821B15",
"&. c #8B1C15",
"*. c #8C1419",
"=. c #831D1A",
"-. c #8B1E1A",
";. c #951717",
":. c #9B1413",
">. c #9C1A15",
",. c #951A1B",
"<. c #A4080A",
"1. c #A4110B",
"2. c #B2110E",
"3. c #A40D12",
"4. c #AD1314",
"5. c #A61817",
"6. c #AB1B1B",
"7. c #B61A19",
"8. c #8C2715",
"9. c #84231D",
"0. c #8A231C",
"q. c #942B17",
"w. c #94231A",
"e. c #99271A",
"r. c #9C231C",
"t. c #A42219",
"y. c #AD231C",
"u. c #B3231B",
"i. c #B82419",
"p. c #8E1822",
"a. c #A51E22",
"s. c #BB1C22",
"d. c #882926",
"f. c #842C2A",
"g. c #952423",
"h. c #9B2324",
"j. c #9C2B24",
"k. c #952929",
"l. c #9D2D29",
"z. c #8A352A",
"x. c #98342A",
"c. c #862F32",
"v. c #982C31",
"b. c #893735",
"n. c #8C3A3B",
"m. c #953434",
"M. c #9C3533",
"N. c #933C34",
"B. c #993B39",
"V. c #AC2423",
"C. c #A52825",
"Z. c #A42B2B",
"A. c #AB2D2A",
"S. c #B42424",
"D. c #BB2423",
"F. c #B42A25",
"G. c #BB2925",
"H. c #B32D2D",
"J. c #BB2B2B",
"K. c #A4362B",
"L. c #AC332D",
"P. c #B6352B",
"I. c #BE2F31",
"U. c #AB3332",
"Y. c #AB3B35",
"T. c #A63938",
"R. c #B73635",
"E. c #C42928",
"W. c #C4362B",
"Q. c #C02F32",
"!. c #C63A36",
"~. c #D13835",
"^. c #8B4335",
"/. c #8D433C",
"(. c #94433A",
"). c #99453A",
"_. c #A54438",
"`. c #B54338",
"'. c #B1553F",
"]. c #C6433A",
"[. c #D1423A",
"{. c #893E44",
"}. c #9B3F42",
"|. c #AD3940",
" X c #8C4242",
".X c #884946",
"XX c #994846",
"oX c #8A514B",
"OX c #99554B",
"+X c #9D4B54",
"@X c #995758",
"#X c #A54A46",
"$X c #B84945",
"%X c #A6524B",
"&X c #B75549",
"*X c #AB4D53",
"=X c #A65957",
"-X c #B55957",
";X c #8D6957",
":X c #986257",
">X c #A6645E",
",X c #B56459",
"<X c #A15761",
"1X c #996A66",
"2X c #9E706A",
"3X c #A66967",
"4X c #B96967",
"5X c #A9726A",
"6X c #B8756C",
"7X c #B36E72",
"8X c #A87373",
"9X c #BA7675",
"0X c #C64A4B",
"qX c #D44D48",
"wX c #C9544D",
"eX c #C65557",
"rX c #D65B5B",
"tX c #E05B57",
"yX c #C86659",
"uX c #D2705D",
"iX c #C66864",
"pX c #D46968",
"aX c #C8746B",
"sX c #D6756C",
"dX c #D66E71",
"fX c #C67774",
"gX c #C47A7A",
"hX c #D67874",
"jX c #EB7675",
"kX c #B18274",
"lX c #C9817A",
"zX c #D6857D",
"xX c #E08279",
"cX c #DB7B81",
"vX c #BA8D88",
"bX c #C98A88",
"nX c #D68988",
"mX c #D3948F",
"MX c #DB9998",
"NX c #E48C86",
"BX c #F3908B",
"VX c #E89897",
"CX c #D2A3A2",
"ZX c #EDAEAE",
"AX c #FDCBBC",
"SX c #FFC8C3",
"DX c #FFD5C5",
"FX c #FFF6E8",
/* pixels */
"$ o O # # % $   # $ L $ % L + + R # U $ O P L E C O % T %   U L P E $ $ P O I H U Y P $ $ P U U T + P O U $ # L R L E $ I L + T ",
"+ # % % # $ % % O + # o + # O $ $ + I C $ L $ L U % + Q W W K K K W W W Q 1XT P # $ $ # $ U E E o $ $ L $ % o $ L   $ % P # . E ",
"# $ # + $ % % L + # $ + @ # + P + $ % $ $ # # G G oX5XbXMXMXCXZXCXMXMXMXbX5XW Z G @XP % % L % $ + I R $ L + P L O + L + o T P P ",
"$ % O . $ $ # $ $ $ L % L L $ U # P $ # % F 7XMXVXnX9X=X/.S A A A A f. X=X4XbXnX9X=XD Z 8XP % $ $ U R $ R + E I $ o @ L O % $ P ",
"# L $ O + + + % + + $ # L P $ I + % # W CXZXgX XA g - - 1 g y 0 0 u z q 5 ; > k  X4XnXcX{.Z 2XL + L + U T L % % % # % E $ I % L ",
"# $ # + # $ # $ L % $ + $ L # % Z  X9XbXoX< * : > 1 4 4 4 1 g g 1 1 0 h z k g 1 * 4 g n.gXgX Xm kX$ # % T % L I O C T R U E Y $ ",
"$ + + # $ L $ O I T T $ $ P F F 9X4Xn.* & : 0 g k 1 = X X , 3 3 3 3 = : - : 2 4 4 2 1 - ; (.aX9XZ J E O T # U R $ O + Y ! + + L ",
"+ # I I # # % # + P T $ $ V .XlX/.y * ; p p q y = $ T % Y $ O P U I T % R U V = = k g 7 ; - 7 XXnX.X4 bX# % + L R R I % E $ L I ",
". O $ U I $ + $ # T $ # 4 4X3XM - 5 8 w ' ' 7 S L $ @ T L I $ $ U $ L T I I T I oXM p a r 5 8 ; j aXgX4 8XL L P R % E P L R + + ",
"+ # $ $ I R P + # L $ Z 7XXXj * ; t e :.{ C.=.I P $ $ I C L % $ T $ I E U % I T I fXx e e ' 6 8 ; 0 +XbX4 1XE $ L T I U U P I $ ",
"+ $ $ $ $ L % + # $ Z gXn.h g 0 z #.@.{ 4.S.g.Y I L U L L % P $ + $ R ~ E U E E % VX0.` >.[ w r 5 h d n.MX4 :X# + I $ % P $ $ % ",
"# + + $ $ + + $ # 4 gXb.h s > v : q h.6.~.Q.U.f.I I E L P L R % $ T ~ E P P P % R (.Y.A.:.] ' x y * h v b.mXk 8X$ $ I O $ P   % ",
"$ O . # P L $ # $ gXc.h : k k 4 oX=Xd.R.7.4.y.$.%XP E P I I E L I U I % $ $ % L =X-.P.H.A.h.d.& & 4 g g h n.nX4 vXP T # P T . H ",
"# $ $ # $ L $ O 7X=Xs ; k : m @ P % =Xk.5.1.6.5.z L T P L P T % $ + + U E I % E 9.X.5.5.$XB.S L E L 4 1 h z XXgXm E % P R L % % ",
"+ L P $ O + + :X9X> h > : Z % % R P I j e.t.1.} #.b.P I $ P P $ L P P E ^ R $ % r o.{ 3.$.v # E % $ ~ M : v h 4X=XF $ P I $ % $ ",
"% + + $ $ # J mXM g ; > 4 $ L R $ # E P 9.;.| o.$.h L U # L % $ % E U $ U ~ U y %.} <.| #.G P % % % P 3 k z z v lXG 2X% # L O % ",
"+ o $ P $ L VXn.1 > d 4 Y % @ $ % I ^ U H >._ | w.a S T ~ T U ~ L I I L P Y S i ..` :.+.> ~ % T L + E E l v h c z.zX1 ~ % + E $ ",
"+ $ $ $ $ 6XlXy > s s L U L $ L L $ I $ $ # ] } ;...7 L P % % T R E T L L U i 8...$.+.f L . L R T # % $ I s v c j ,X%XoX^ I % L ",
"+ I $ O Z ZXn.: ; s $ L U I L U U % I I U L ' ) ` &.p v L P P U P P L $ # y a  .X.] *.R E U ~ T % L I P L T j u i S zXk ^ L $ ~ ",
"$ P $ + 5XlX< g d d $ H T U L I % $ U R U C t ] $. .r t G I L $ $ L P L j 0.&.] } ;.q T % P P E $ E E T % U # c N i ,XOXP $ T E ",
"L $ $ Z mXG 4 1 b n.$ L U I $ % C $ P R I P d.r ' [ ] ' t R E R % P I I a $.X.} @.*.% P P T $ # T ~ T H $ U @ c N N N lXA U R # ",
"L + $ +XnX4 4 1 h L L P U I % % T L $ I L T U 6 e } >.) $.h ~ ^ P P L c #.;.) :.;.q P E U $ T L L T R P $ L # h c N i aXB.L % L ",
"$ $ @XVX4Xg < M G U P L P P L I P % $ L $ I $ A +.{ @.e *.x g S n.f.j c -. .} *.x I . # T R R @ $ $ E U L % % c.c c N ).4X X$ E ",
"+ P @XZXn.k k 4 P U L $ $ $ % U % T R ~ % I % =X' ) #.0.8 ; g : 0 - 0 c p -.;.*.L U R + # P $ R E $ P $ P U R I z %.N 9.hXA Y U ",
"O $ 1XZXA A k Z P I I U % T # $ $ P $ L I P T $ r +.y , X , 1 A A A y > y b *.+.$ ~ Y % L $ L R T   ^ T P % I # A d.9.c aXG U L ",
"% 8X8X9Xv h b {.% + + $ $ E % L T I o o $ I E I p.w & n FX;X: h h g 0 j & & d.9 U # ~ ( $ L / # L % T I R E L U T =.-.=.4XoX8XT ",
"$ oXbX.Xh b v.4XE L $ $ $ P # % R E P $ # $ P % d 9 * G DX3Xv 9 d s k g DXkX: M L $ P E P I ~ L L $ $ T # E I # R %.-.=.XX3XoX+ ",
"o W mXG q k.v.iXP $ L P % L L ~ # I R T I P U c.- ; : : 4 = D +X XD : k AXkX< < $ E # + E P # I U L $ E + R E + $ 0.g.=.z.9Xn.$ ",
"+  XmXM 6 h.*.T.# + L L L P U ~ L P U I U E v.6 ; - h c M I I $ U I P = M j 7 p T U L T E P L # L E % % U U L L R k.C.&.N aXT ^ ",
"L /.nX0 ' :.[ ,.T.B.m.k.d.=.0.0.#.x x t r ' r w 5 7 b v L U T $ E U I % j 9.g.r ' -.v.B.OX5XE P R T T $ I $ $ $ E $.>. .c iX+ % ",
"$ (.hX8 [ >._ 5.I.A.h.C.t.:.:.X.} @.@.@.@.} r 8 w a d.A $ L R U ^ ~ ^ I A r j.&.e w.l.0.9.f.N c 9.-.%.z b b d.0.$.e [ ` a iXP I ",
"+ ).aX8 ) :.) V.Q.6.:.V.F.5.5.| | 3.| | <.} a 5 8 5 c @XY $ P R $ L ^ T *X#.&.w.e t.Y.`.&X&X&X%X$X$X$XT.T.M.T.M.' w ]  .r pXB.% ",
"P ).iXt $.+.) V.H.V.5.V.V.a.V.6.6.3.:.[ 5.] a * oX1X2 3X# E I T % L R T <X=.B.x.` O.&XuXyXsX,X,X4X,XsXsX,X-XiXB.a 6 r $.' yXN.o ",
"I (.iX8 #.,.' *.h.g.w.l.l.g.h.*.C.,.U.j.j.T.B.* ZXFX2 K L I C % L U P R {.> k N  .L.x.'.&X#X#X=X%XXX-X-XXX).#X9.x w r *.$.pX(.I ",
"$ XXaXu x #.6 =.#XXXb.S S G /./. XS b.f.N d.z.v c.}.b.B P $ I I % I $ vX= :XDXM a R.Y.M.M.m.b.f.m.v.T L # I L + r w [ ,.$.iX^.$ ",
"+ b.fXN x #.q =XL o U I % ~ + T U # L L I U $ A t T.v.c.A P Y T U P $ Z 3 6XDXN T.R C % % I ! % L $ R R L L L $ p 6 [ ,.0.iX/.P ",
"$ {.fXb.%.0.c gX$ + % U L U # P P + L C L L # I z h.Z.,.T.b {.9XfXB.+.*.a z.N N S I # $ C I ^ T E + Y L E T U $ ^.5  .*.x.aXR E ",
"% @X4X).%.k.N >X$ U $ R P L P L % L E E L $ % E 0.) V.>.C.|.; - x Z.H.F.O.r.w.x..XU $ L T R ~ T E $ E O I I U % :XN w.w.).4X# P ",
"$ 8X=X%X8.q.N.OXL R $ I $ L I L U L $ I U % % % A.4.{ o.C.- mXSXb jX&X` t.1.y.l.R T % I E T U I T $ R # P P $ U OXx.C.r.&X=XL I ",
"% L +XiXq..._.N.% P + # O % L % % U L R I + L I t.7.7.{ X.8 lXZXf._.d...| 2.i.U.+ % U U L + $ E ~ # $ U ^ ~ + E ).K.r.C.iX>XU P ",
"$ $  XiXx.8.e.x.% Y U I + I I E P % U I E T E R t.u.i.i.S.' b.G c.f.^._.u.E.7.C.$ L U E T L E ~ ~ U P L T I $ ~ z.K.j.K.VX3X% L ",
"+ # =XyX_.8.e.k.U L % P I T L L % $ $ $ P P U h.y.6.i.i.6.0XL T L U P NXV.i.7.V.I + o $ T E T P I U T I E E L R M.j.j.&XnX3XU E ",
"P P bX#XyX8.e.l.b.$ $ I E U L $ T I $ $ # % $ 6.u.i.i.F.Y.I L T T L I % rXJ.G.6.h.$ $ + $ L + $ L I I $ % U L b.Y.j.j.aX=XbXE $ ",
"# $ $ b.sXx.w.l.z.$ L P E % T U E E L P $ I a.s.i.D.G.L.d.U P T $ # P ~ ~ R.F.Q.a.$ I + + L # E T U T % $ I @Xm.U.A.K.aX XT E + ",
"O + $ 3X-XeXj.l.M.b.P % U % E T L I % I L T.S.7.7.i.I.g.U R I L E E $ L L T.6.s.S.l.P # I E $ T U L Y U I vXb.T.C.L.-X=X5X$ P R ",
"L L P P n.pXY.g.M.d.@X$ I P ~ L $ L P U U ,.D.7.E.~.C.P T E U % L ^ T E E T H.J.G.r.P % E ~ # $ R $ P P L OXN.U.A.R.hX.X$ C L R ",
"# $ L P % eXeXl.l.M.z.gXI P T $ P U T L M.t.y.u.7.H.z.P T R U I T ~ U I U R Y.6.F.y.Z.$ E ~ U E ^ I U L 5XN.Y.A.R.rXpX7XL E R % ",
"+ # % H $ B.dXY.Z.U.Z.m.I % P % I U R N.L.P.t.u.!.j.I P I P P T I # % I I % pXV.y.u.J.g.R E T R T % I kXN.Y.L.H.R.dX#X% $ % $ O ",
"U I $ $ T + %XiXH.J.H.Z.#XI % $ C # $ K.!.W.W.P.K./.Y $ Y / T T U ~ R U U $ -XK.P.W.u.$.U T % E I + . N.L.P.J.I.pX=X9X$ P # L R ",
"# $ E L P %  XiX0XJ.J.H.j.(.$ % P P x.>.u.E.].$XN H Y R P O # ( $ ~ R $ I U S $XH.1.4.} v.U $ U T L N.`.P.W.J.wXiX@XU + P C $ . ",
"+ $ T % $ T # n.sXL.~.F.`.z.).I % ,X#.5.7.7.I.l.% E E T P $ U ! $ E R $ U I E k.6.2.<.4.*.fX$ U 6Xz.z.C.G.[.`.iXn.U I + P L $ . ",
"# U + P I T T H b.sXA.!.L.j.wX$XT.-.Y.} { 6.,.R $ ~ U % I R E # L P I P E $ L B } 4.E.4.) v.,XaXeXj.r.P.P.P.yX^.$ $ $ + L + % U ",
"$ I O T T L $ + $ B.iXK.!.7.qX]._ _ r.A.H.*.g I P Y H E ~ L I Y % % P I R % I $ 9.r._ o.C.[ *.Z.tX5.W.qXj.yX).L # # $ + % + % T ",
"$ @ P P % % o U $ =X^.yX!.D.W.G._ { ) ` L.d.>XP R I P ^ / L L ! L T I P % I E H (.%.j.O. .e w S.~.W.~.y.uXz.+ P + $ $ o L P P # ",
"# + U # $ % $ E $ $ >XB.yX].6.4.G._ ) w [ 8 >XU P L L H U I $ H I E P Y + P T % =X8.` e w w X.S.~.~.`.yX_.$ + # $ $ $ o I T I + ",
". L % $ U # I + I $ + U N.yXqXy.o.O.y.| e 6 M T P P T % % L @ U L L + E + % % P z.6 w w ` X.r.5.F.].yX^.$ U % # T % # + I % % L ",
"+ $ C P I I L % $ $ $ P T b.iXpXR.>.1.4.1.X.w.0.m.XX+ U T I @ E L P $ T I U -XB.g.*. .o.o.o.t.L.pXeXN.U P . % # T U + % % U # $ ",
"$ % % $ $ % % % $ @ O % T L  X%XsXrXJ.4.6.5.o.t.r.h.M.*X4X9X8X:X6XfX6X=X#XT.Z.h.l.j.r.;.>.A.wXjX#X/.% I $ + $ # $ P L I I U U E ",
"% % $ # # $ $ $ % % O $ % L % + XXpXjXrXL.F.I.S.F.F.R.|.|.B.Z X 7 M.&X#XT.R.0XeX$X#X_.T.rXjXpXm.7XE L I $ P L P o $ U U R I I U ",
"$ $ $ # # $ $ # % I $ % + % # + % P }.hXBXpXqX!.P.C.U.$XeX-XG X f.&XyX&X$X0XrXpXhXhXnXVXaX}.$ % $ T # $ $ $ $ P L % $ O L $ L L ",
"# $ # # # $ $ $ # C $ $ + P $ % $ @ # P I iXcXBXxXaXaXaXiX4X@XG %X,X4X4XaXzXNXNXVXVXnXI U % # # I U $ $ P + $ I $ $ $ O U L L # ",
"# # + + + $ % L $ + + + + P $ # C % P R R I I R C % U R E % L T L L L $ P $ % P C % % I R P # $ ! R T I E + L U O $ L $ I % $ + ",
"# # # + + $ $ $ C @ % + $ % @ # @ % U I H C I R L T R % T I I P # % I $ P $ L I C L % P R P $ L U U I U L + % % P T % + o $ $ P ",
"+ # $ $ # $ @ O P $ ! L P $ % U + # @ # P E E U P L % # ! P L R + L R L T $ % L P I % $ P % $ Y % U I E # % I $ + P L U I E $ + "
};
