/* XPM */
static char *_48a993f22734ad19352002d1ff2b49dCfuyYzm9hghXSrSK[] = {
/* columns rows colors chars-per-pixel */
"64 64 116 2 ",
"   c #020202",
".  c #080607",
"X  c #090708",
"o  c #0C0B0C",
"O  c #100E0F",
"+  c #110F10",
"@  c #141314",
"#  c #181617",
"$  c #191718",
"%  c #1C1B1B",
"&  c #201E1F",
"*  c #211F20",
"=  c #242323",
"-  c #282627",
";  c #292728",
":  c #2C2C2C",
">  c #302E2E",
",  c #31302F",
"<  c #312F30",
"1  c #343434",
"2  c #383736",
"3  c #3A3937",
"4  c #393738",
"5  c #3C3C3B",
"6  c #403F3E",
"7  c #41403E",
"8  c #413F40",
"9  c #444343",
"0  c #484745",
"q  c #494847",
"w  c #494748",
"e  c #4B4B4B",
"r  c #504F4E",
"t  c #52514F",
"y  c #514F50",
"u  c #535353",
"i  c #585755",
"p  c #595856",
"a  c #5B5B5B",
"s  c #605F5E",
"d  c #62615F",
"f  c #646363",
"g  c #686667",
"h  c #696768",
"j  c #6B6B6B",
"k  c #716F70",
"l  c #757474",
"z  c #787677",
"x  c #797778",
"c  c #7C7B7C",
"v  c #807E7F",
"b  c #817F80",
"n  c #848384",
"m  c #888687",
"M  c #898788",
"N  c #8B8A8B",
"B  c #959494",
"V  c #989697",
"C  c #999798",
"Z  c #9C9A9B",
"A  c #A09E9F",
"S  c #A19FA0",
"D  c #A5A4A4",
"F  c #A8A6A7",
"G  c #A9A7A8",
"H  c #ACABAB",
"J  c #B0AEAF",
"K  c #B1AFB0",
"L  c #B4B3B3",
"P  c #B9B7B8",
"I  c #BCBBBB",
"U  c #C0BEBF",
"Y  c #C1BFC0",
"T  c #C4C3C3",
"R  c #C8C6C7",
"E  c #C9C7C8",
"W  c #C8C8C8",
"Q  c #CCCACB",
"!  c #CCCBCC",
"~  c #CFCDCE",
"^  c #D0CECF",
"/  c #D1CFD0",
"(  c #D3D1D2",
")  c #D4D2D3",
"_  c #D5D3D4",
"`  c gray83",
"'  c #D8D6D7",
"]  c #D9D7D8",
"[  c gray86",
"{  c gainsboro",
"}  c #DDDCDC",
"|  c #DFDFDF",
" . c #E0DEDF",
".. c #E1DFE0",
"X. c #E3E1E2",
"o. c #E4E4E4",
"O. c #E6E4E5",
"+. c #E8E6E7",
"@. c #E9E7E8",
"#. c #EBEBEB",
"$. c #EDEBEC",
"%. c #ECECEC",
"&. c #F0EEEF",
"*. c #F1EFF0",
"=. c #F2F0F1",
"-. c #F4F2F3",
";. c #F5F3F4",
":. c #F5F4F4",
">. c #F6F4F5",
",. c #F8F7F7",
"<. c #F9F7F8",
"1. c #F8F8F8",
"2. c #FBF9FA",
"3. c #FCFAFB",
"4. c #FDFBFC",
"5. c white",
/* pixels */
"2 = - 1 1 5 2 @ 1 4 9 2 5 9 : : u 1 9 # : 2 $ a 5 - 5 u 5 @ e 9 w p 4 2 w - w 8 e # 1 - @ w Z e u : w - e 2 1 9 u 9 a 2 w 9 : u ",
": 1 5 5 1 2 5 5 - : 1 = : 1 - 2 4 @ % 1 % % # 9 e 5 : 4 : 9 2 9 4 u w e a 2 u w 1 @ $ $ 1 * @ a = 2 4 9 2 5 - 2 9 $ 2 5 w 1 & a ",
"1 2 1 : 2 5 5 9 : 1 4 : < 1 : $ e o.` $ @ : = j w w 4 : 1 f 2 w 4 u w 9 e 1 u e j * - @ % ] +.e $ w u 2 9 : w 9 - : 9 : - u w w ",
"4 5 - % 2 4 1 2 2 2 9 5 9 9 1 j 5.5.X.: 4 % @ < 2 5 a 2 w 9 5 9 5 w 5 1 w : w w : o $ 4 : o.5.4.j 1 u 2 p : a w 4 = 1 9 - 5 2 w ",
"1 9 2 - : : : 5 : : 1 1 8 M   T 1.-.5.e O - 1 * 5 2 u u w & w : 4 9 9 5 u 5 9 4 & 1 - + y 5.-.<.I   N e u 9 5 5 5 1 5 a 4 w 5 9 ",
"1 4 1 : 1 2 1 2 9 5 4 : 1 8 o a 5.1.3.n . # @ X G 4 : j 5 1 u 5 9 5 5 1 u w w 9 X @ @ . m 5.3.5.a o 9 5 u 5 9 w - 8 u u e a e 2 ",
"2 : : 1 2 9 4 - w u u 1 2 . : w %.>.5.I r u x 1 j 4 1 a w w w u e 9 5 : w w e g 1 x u r U 5.>.%.w ; . ( u 1 e u 4 - : u a : : 9 ",
": 1 w w 1 1 5 1 : w u 4 4 # = # _ 5.C e <.5.5.V 5 4 u 5 y 2 - w e w u 5 u e w 5 Z 5.5.,.e C 5.` @ = # m 1 5 : 9 u u w 5 a 4 9 w ",
"% - 4 e w 1 : 4 1 u 4 2 9 @ 1 @ B n   $ ) 5.<.^ ; 2 : u 9 w 4 4 e 2 9 u w w u : ~ 1.5.( @   N N + 1 @ 9 w 9 9 w u 5 a w 9 u : : ",
": 1 2 4 w u w : 1 w 4 9 u : $ % g $ - - C 3.5.=.: 4 4 w 5 9 5 2 u 4 w a w 5 w : ;.5.1.Z = = % g $ $ : u 5 e a 2 9 u w e e w w 4 ",
": 4 4 2 2 8 5 : < 2 5 D m u . a [ * : . v 5.>.5.w w e 9 9 5 w 4 : 2 u g a e m e 5.%.5.m . = & | a   u N F e e 1 : w 4 5 w 4 4 5 ",
"1 : : 4 2 : : 2 1 1 9 c R n . P 5.u @ = 1 =.] U e w a 9 w 9 u 5 4 u g a w w a u R ( &.2 * o u 5.L   c R c 1 : a 4 4 w : 4 w # 5 ",
"4 - % 1 w 9 2 1 2 2 w g #.F : %.>.k o - H 9 # # = w a w w w a 9 w e w 5 4 2 : - # # w H * o z -.#.- F #.g 5 % 1 u w u 1 w u % 8 ",
"1 4 4 1 2 9 4 - 4 5 w a 1.` c 5.5.Z 2 @.5.g X - $ % u w 9 w u 5 4 : : e a w % % = o j 5...4 F 5.5.c ` 1.a : w w e a 5 w u w 5 5 ",
": 9 w 2 - : : : 1 4 [ h 5.%.W 5.>.X.E 5.<.C # : - % w w 4 w w 4 9 w w a j S $ : > # C 1.4.E +.;.5.W %.5.j 1 e 5 9 w 4 w w 4 5 4 ",
"5 : : 2 4 1 1 4 : 1 Y z 5.o.| ,.5.N [ 5.3.Q = + $ X 9 e 1 9 5 4 5 a e 2 e k . % # $ R 5.5._ N 5.=.| X.5.z T 5 4 9 - w 5 1 9 - 5 ",
": = 2 w 4 9 e 1 4 4 C Z 5.( g 5.#.- A 5.,.4.< 1 j u 4 u f u e f 9 w w 9 w 5 u h > 2 5.>.5.D : @.5.j _ 5.C C w e 1 a 1 f 5 : a 4 ",
": 2 4 2 4 5 5 5 9 5 c L <.P - 5.P   N 5.5.I L 5.5.E 9 9 w 5 5 u u a u 9 9 : Q 5.5.K U 5.5.M   P 5.- P <.L c e u = 9 2 5 j w 5 9 ",
": w 4 : 4 2 1 w w 9 5 G 1.B o $.l % 5 >.D X Z =.5.#.% 9 9 w w e w w 9 2 T $ %.5.;.C . F 1.2 # z o.o C 1.G 6 9 u 5 9 g 2 j 9 4 f ",
"2 w 4 : 2 2 2 w 9 |   j 5.j o M : # - Z 1 o j 5.1.5.e w w w 9 4 4 9 w 9 n 0 5.1.5.g X 2 A = @ : n o j 5.j   1 e u 9 x w w 4 u a ",
"9 2 4 4 : 5 w 5 2 N X 9 5.e . 9 : @ 8 u . $ : 5.1.>.c 2 5 u a u 5 w w w u c 1.1.1.< %   u 8 # : 9 X e 5.8 o B 9 2 5 w w 9 e u 1 ",
"9 : 4 9 : 5 e 2 @.2 : % W 5 . c 1 % l H ; = # ( 5.W c = w a g j w w 9 -.: z ~ 5.! $ - = F z = < c X 4 T % : 4 9 $ a - 1 5 9 5 9 ",
"2 2 4 4 1 4 5 5.x o * X h = O R a . ( $.$ % # m 1 # % o u w 9 u u u e ` @ # $ 1 n $ = $ $.( X a R O = f X = O z 2 j : 8 4 2 4 a ",
": f N L o.&.G y $ : % ; 9 - ; X.M : 5.>.2 @  .H O % = % S 2 9 g e w w Z = & & o K | @ 5 1.5.- N ..; - 9 : = : @ u H %. .L N f e ",
"-   $ # & = o 5 X.u @ % H 1 - 5.G l 5.,.j S 5./ - $ - @ x : 9 u 5 e 9 z + ; % - ' 5.C j 3.4.j H 5.- 1 H % # u ..5 o & % % O X 9 ",
"5 ; % # = 4 T 5.;.B @ 6 5.f u >. .P 5.5.R -.,.5.2 = : @ 9 9 w 2 e a e 9 @ : = 4 5.,.-.R 5.5.I | -.u f 5.5 @ B -.5.T 2 % % # 1 u ",
"2 w - & : 5 5.5.5.[   x 1.b g 5.<._ 5.5.N 5.=.5.z @ % = ; w e 2 9 u e - = & @ x 5.;.5.N 4.5.' *.5.h n <.x   [ 5.5.5.5 - - & u : ",
"= c X % - % R 5.=.$.5 ( >.T D 5._ Z 5./ o | 5.5.B   o $ # 9 w 9 w u e # $ O   B 5.5.| o ^ 5.S ^ 5.F T ;./ 8 %.*.5.R % = =   n 4 ",
": 5 # % % % m 5.5.$.T 1.5.=.+.<.H u 5.B . P 5.Y & 5 M z   N w 4 e w m   z N 5 % R 5.P . B 5.u H ,.#.-.5.<.T %.5.5.b = # * # W j ",
"9 9 1 # @ o u <.3.B C 4.1.[ I >.C % 1.a @ B ( = w e 9 8 . u u 4 a e u . w w u 9 : ~ N # a >.$ Z >.I [ <.1.C V 1.1.e # o $ < 3.5 ",
"4 9 f m L a j D u % = 4.5.B a 5.x X J 2 X u j & e u 9 4 : 5 u e j f 5 : 1 w 1 9 * j u X 4 K X x 5.s V 5.1.= % u F f f H M f %.w ",
": w Z N 5.>.5.g X = % ) 5.6 1 5.r @ w < % = X w e 9 2 e u o w u 4 ! o u 2 f 4 u w o - $ > e # w 5.1 8 5.( % - X j 5.5.4.N Z 5.5 ",
"w w o.w 5.5.>.T = - $ F ! = $ W 4 $ e 1 % @ f w a e a 1 m   S u 5 G   C : u e j e g o - : u $ 5 W $ = ~ G $ = % I 1.5.5.w #.e = ",
"w 9 5 a ` 1.5.| % : o w j % = a ; % D w = @ D 2 9 w y w G o c 5 9 n   P 2 5 5 4 9 2 $ % e C = : a = % j w o : = [ 5.1.( a 1.u w ",
"2 1 1 B N =.5.5.g X 1 B w   # u = % o.j o - w f 9 w 5 w | - w w 5 e $ | e w a e u u : X l | = = u #   w B 1 o j 5.5.%.N B 5.4 4 ",
": 1 4 [ w G R ( N x W 5.f # 1 L 1 : =.G   u 4 e w w 8 5 5.9 # u e = 9 1.9 4 w 9 u u u   D 1.- 2 H : # g 5.! z N ` Y D e | >.u w ",
"4 9 9 5 2 o % O u 1.5.5.D . w 5.p 5 1.X.X N 1 w 5 4 u 4 5 j   ` W   l 5.e u u a 4 w n o [ 5.4 a 5.w . F 5.5.1.e @ # X 4 1.5 a a ",
"5 4 1 4 Z X 1 - $ X.>.1.%.X B 5.n f 5.=.: G 5 a w 9 a 2 2 Z   D L   F 2 1 9 4 9 w e 2 = 1.5.g b 5.C X %.>.=.| $ - 1 X Z 5.= 1 w ",
"2 1 1 5 ` # % = . B 5.5.>.x 5.1.I D 5.| 1 5 5 5 e e a 5 4 ` @ g T # ` 2 2 4 w 1 u u 5 : o.5.F I 5.5.z >.5.5.B X = % # ` =.4 9 w ",
"5 9 w u 5.9 X = @ u >.5.~ P 1.5.1.X.5.R - : 9 w : 9 e u e 9 = 8 o.2 =.: 4 5 l e : 5 e : T 5.| 1.1.>.P ( 5.1.u @ = o w 1.9 4 e w ",
"2 4 5 9 5 l 9 u : 9 R B @ j 5.5.W L 1.C 9 y a u w u w 4 5 9 a @ R D : 9 w 2 w : 4 9 e 9 C 1.L W 1.5.j @ B R w : u 9 l 5.2 w 5 9 ",
": 1 4 9 w P x 1.5.=.c o # = ( 5.z z 5.l f w e w u u y y u w N   H e w w w w 5 = w : = f l 5.z z 5.( = @ o c >.5.1.c P 5.1 4 e a ",
"w w w w 4 | a 1.1.5.C = 1 @ ( >.= 5 >.w B 5 4 4 e w 9 u a w T   c 9 w 5 9 e w u g 4 2 B w >.5 = 1.( o 1 = C 5.4.1.a | u : 8 a 2 ",
"1 2 4 5 2 5.f P >.5.| $ = @ x N o : T : ~ w 4 2 w 9 4 9 u e w $ w 1 w f g w 4 5 u 4 w : : T : o N x @ & $ X.5.>.L f 5.g 9 u a : ",
"- : 2 4 2 5.G m 5.>.5.a @ $ f 5 # : g 4 =.a w w e u e 9 y u w 9 $ a 1 9 9 < w 2 u 4 w 1 4 g : # 5 f $ @ a 5.>.5.m G 2 w w 4 w u ",
"9 w w w 4 : [ e X.>.5.N 4 F 5.4 $ = % f e a u e w a u w u a e x   W u a a u a = y w w 5 a % = $ 4 5.F 4 N 5.>.| e [ = - 4 8 9 u ",
"1 4 9 9 5 2 5.f - 5 2 j 1.5.1.m # % @ G w w u w 9 e w w u u e F   B e w e u j a 4 w 4 4 a @ % # m 1.5.1.j 2 5 = f 5 5 1 9 a u 5 ",
": 1 5 8 4 2 5.B X - @ = [ 5.5.P # - : X.5 2 w w a u w w w w G I o g 5 w w 5 5 a f f 1 : u a - # T 5.5.[ = @ - X C : < 5 4 5 4 ; ",
"e w 2 4 u : w o.% = - @ Z 5.5.>.5 . j 5.5 d 1 , i e r 2 r =.5 X.2 : u w e 4 2 4 5 w w 5 e u   9 =.5.5.B $ - $ = o.4 9 2 w 1 9 u ",
"1 2 a 9 w 5 = 1 w % : @ g 5.5.1.: % #.6 1 e 7 w 9 7 u i 9 ` $ I a # u 4 w e a w w e e w w e 2 > >.5.5.a % : $ e >.u e : w 5 2 % ",
": 4 u 5 4 u 1 9 N % : X 5 1.P a $ B q e , 5 e a 5 a a u 0 G   H C   u 2 e w a 5 5 w 9 w 5 u 2 $ a P 1.4 o : $ B w e w : w 9 4 % ",
"1 e : w w u u 8 4 O # % . 4 X @ > u 9 p 5 3 r i 3 f e 5 5.z   R !   x w a 4 9 1 2 4 4 w 4 u 2 w o o : @ @ = X : 2 2 4 : 9 : 5 e ",
"2 w - u u 9 4 : 4 u a 9 u 2 1 w 2 r 6 a 0 7 e q 0 t 7 a 5.9 % %.#.# e w u 5 w 4 5 4 9 w 4 e 2 5 %.N 9 5 9 u j 9 1 1 4 : 5 : 5 u ",
"2 : w w 5 5 = e 2 y e 2 4 2 4 w q t 6 u 0 q 9 9 u q 9 j o.% w s 9 w : w 5 w a 9 9 2 e w w e w 5 g u 5 w 2 1 : w : 4 4 = 9 w w 1 ",
"1 : e 1 2 5 2 a 2 4 1 2 1 4 5 w q 0 0 u 9 e 5 e 0 9 9 5.I . 2 7 w x . e : w u 5 w : u w u w e 5 w w 9 e 2 2 : 2 4 4 2 = w u w : ",
"% 9 5 4 e 1 w : w 2 : e 5 9 2 5 2 2 e u 9 u 2 u 9 w u >.Z   , e 9 C   a : 5 5 w e > a 9 u 4 w : 4 w 5 w 4 w 4 1 u 5 1 : w 5 5 9 ",
": 2 8 w w w 9 5 2 2 4 w u - 9 9 2 3 r d e : : e q w : 5.a X , a 9 ` X a w e 2 w u 2 4 w 2 2 w 9 2 : 9 e w % 5 1 u e : 5 5 e 1 2 ",
"4 5 5 4 4 5 5 5 2 < - 5 u 9 e 5 5 > : 1 6 9 e t a 0 > %.2 1 1 s u =.: 1 5 5 : 5 5 1 w u w 5 w 9 2 5 5 w 2 : 4 1 2 w 9 w w e e a ",
"5 5 4 1 1 2 4 2 5 4 - 4 5 9 5 : w q 9 3 3 q a f u a e ~ o a 7 3 e w a o 9 9 2 w 2 2 w a e 9 9 9 5 a 9 w 4 w 9 w = 4 e e u w w e ",
"2 4 4 1 1 2 2 1 4 w 4 5 : 4 1 : 5 9 q 7 2 1 7 e 7 t u J   N 0 : 5 5 N   e e 9 w 5 5 w u w 4 4 4 4 u 1 2 2 4 4 w 9 5 4 = 9 4 9 9 ",
"< 2 1 1 1 2 4 2 1 5 4 4 : w 4 5 2 , 1 9 w 7 3 5 5 : 7 c   T 7 r 9 9 T   c w 5 9 w 9 5 w e 5 1 1 w e 4 2 w : 2 w 2 2 2 - e 9 9 1 ",
"1 1 : : : 2 5 9 2 : : : : w 2 1 6 5 0 i u q q i 7 5 e 9 @ 5 9 u 9 9 9 @ 9 4 5 w 5 5 5 w p w 1 2 f u u w a : 9 e ; 4 9 4 w 5 2 : ",
"1 1 1 : : 2 4 4 8 > 5 : 2 5 : 1 , 5 w w 7 5 w p 9 u p : 9 q q w 1 5 w 9 : 2 9 w 5 9 5 w u w 2 9 e e w e 9 : 5 4 w u 5 : = 2 4 w ",
": 1 2 2 1 2 < ; w 4 s 9 w 4 5 e : 1 1 1 9 a a e 9 9 5 5 x 9 9 p : 9 u 9 5 4 5 9 w w 4 4 w 5 2 e 5 e w a 1 5 w 4 : w 9 e w a 4 : "
};
