/* XPM */
static char *_f2c79a76b194173f4e9ff5c26580508UIwKtcGf1KB8LPHS[] = {
/* columns rows colors chars-per-pixel */
"64 64 155 2 ",
"   c gray7",
".  c #131313",
"X  c #161616",
"o  c gray9",
"O  c #181818",
"+  c gray10",
"@  c #1B1B1B",
"#  c gray11",
"$  c #1D1D1D",
"%  c #1E1E1E",
"&  c gray12",
"*  c #202020",
"=  c gray13",
"-  c #222222",
";  c #232323",
":  c gray14",
">  c #252525",
",  c gray15",
"<  c #272727",
"1  c #292826",
"2  c #282828",
"3  c gray16",
"4  c #2B2A28",
"5  c #2A2A2A",
"6  c gray17",
"7  c #2E2D2B",
"8  c #2C2C2C",
"9  c #2D2D2D",
"0  c #2F2E2C",
"q  c gray18",
"w  c #2F2F2F",
"e  c #302F2D",
"r  c #31302E",
"t  c #32312F",
"y  c gray19",
"u  c #313131",
"i  c #333230",
"p  c #323232",
"a  c gray20",
"s  c #343331",
"d  c #353432",
"f  c #363533",
"g  c #343434",
"h  c #353535",
"j  c #373634",
"k  c gray21",
"l  c #373737",
"z  c #383735",
"x  c #393836",
"c  c #3A3937",
"v  c gray22",
"b  c #393939",
"n  c #3B3A38",
"m  c #3A3A3A",
"M  c gray23",
"N  c #3C3B39",
"B  c #3D3C3A",
"V  c #3E3D3B",
"C  c #3C3C3C",
"Z  c gray24",
"A  c #3F3E3C",
"S  c #3E3E3E",
"D  c #3F3F3F",
"F  c #403F3D",
"G  c #41403E",
"H  c #42413F",
"J  c gray25",
"K  c #414141",
"L  c #434240",
"P  c gray26",
"I  c #434343",
"U  c #444341",
"Y  c #454442",
"T  c #464543",
"R  c #444444",
"E  c gray27",
"W  c #474644",
"Q  c #464646",
"!  c gray28",
"~  c #484745",
"^  c #494846",
"/  c #4A4947",
"(  c #484848",
")  c #494949",
"_  c #4B4A48",
"`  c gray29",
"'  c #4B4B4B",
"]  c #4C4B49",
"[  c #4D4C4A",
"{  c #4E4D4B",
"}  c #4C4C4C",
"|  c gray30",
" . c #4F4E4C",
".. c #4E4E4E",
"X. c gray31",
"o. c #504F4D",
"O. c #51504E",
"+. c #52514F",
"@. c #505050",
"#. c #515151",
"$. c #535250",
"%. c gray32",
"&. c #535353",
"*. c #545351",
"=. c #555452",
"-. c #565553",
";. c gray33",
":. c #555555",
">. c #575654",
",. c #565656",
"<. c gray34",
"1. c #585755",
"2. c #595856",
"3. c #5A5957",
"4. c #585858",
"5. c gray35",
"6. c #5B5A58",
"7. c #5A5A5A",
"8. c #5B5B5B",
"9. c #5C5B59",
"0. c #5D5C5A",
"q. c #5E5D5B",
"w. c gray36",
"e. c #5D5D5D",
"r. c #5F5E5C",
"t. c gray37",
"y. c #5F5F5F",
"u. c #605F5D",
"i. c #62615F",
"p. c #606060",
"a. c gray38",
"s. c #626262",
"d. c gray39",
"f. c #666563",
"g. c #646464",
"h. c #656565",
"j. c gray40",
"k. c #676767",
"l. c #686868",
"z. c DimGray",
"x. c #6A6A6A",
"c. c gray42",
"v. c #6C6B69",
"b. c #6C6C6C",
"n. c gray43",
"m. c #6F6F6F",
"M. c #71706E",
"N. c #72716F",
"B. c gray44",
"V. c #717171",
"C. c #727272",
"Z. c #747371",
"A. c #747474",
"S. c gray47",
"D. c #7B7B7B",
/* pixels */
"l ; < u u C l . u v J l C J 5 5 :.u ..l < ! J 8.C < C #.C . ..J ! 8.v l ! < ) J ....! l l ! ....#.q ! < ..l u J :.J w.l ) J 5 #.",
"5 u C C u l C C < 5 u ; 5 u < l l q ) J l J l J ..C q v 5 J l J v :.) ..8.l #.! u l l u v ..8.8.; l v J l C < l J + l C ! u ; 8.",
"u l u q l C C J q u v q u u 5 ! q v C l l u u C ! ! v 5 u p.l ) v #.! J ..u #.......! C C J C l 5 ) :.l J q ! J < 5 J q < #.! ! ",
"v C < % l v u l l l J C ! J l ..l ! l u C l l C l C 8.l ! J C J C ) C u ! q ! ! ) ! J ! ! ! C v v ..:.l 8.5 8.) v ; u J < C l ! ",
"u J l < q q q C q 5 l u J ! l ) 5 C u C #.! v l C l #.:.! ; ! q v J J C :.C J v v l v ! ) ! J J q J q ..#.J C C C u C 8.v ) C J ",
"l v u 5 u l u l J C v 5 l J u C u u u u ! ) C J ..v q b.C l #.C J C C u #.) ) J ! C J ....C v J C v u C :.C J ) < C #.:.) w...l ",
"l q q u l J v < ) #.#.l l ! l v C 5 C q q J v ! #.v u w.! ) ) #...J C 5 ) ! ..#.J v J #.#.! ) w.w.! 8.< #.u ..:.v < q #.w.q 5 J ",
"q u ) ) u u C u q ! #.v v ..C C C < :.! q C 5 u ) v :.C #.l < ! ..) #.C :...) ..) J ! :...v C :...8.h.C u C 5 J :.:.) C 8.v J ) ",
"% < v ..) l q v u #.v l v 8.C l 8...! C v v ! #.J l q #.J ) v v ..l J #.) ) #.) J J J ) 5 ! ) C u v ) #.) J J ! :.C w.! J :.q q ",
"5 u l v ) :.! q u ! v J v ) v v l C ! ..C C C ) ! v v ) C J C l #.v ) w.) C ) #.) w.D.l v ) D.#.8.5 v ..C ..w.l J #.) ....! ) v ",
"q v v l l J C q u l C ..v v v ! v J C ..u v v #.) ! ..J J C ! v q l :.h.8...8.w.C ) :.:.J #.8.:.C q ) p.#.....u q ) v C ! v v C ",
"u 5 q v l 5 5 l u u J ..l v ! ! C ! l ! q J J :.) ) 8.J ! J :.C v #.h.8.! ! ! C :.#.J h.#.p.! ! J :.J q C u q 8.v v ) 5 v ! o C ",
"v < % u ! J l u v v ! C q v ) v u v l ) J ..! ..C ! w.! ) ) 8.J ) ..) C v l C ! h.p.w.q ) ) #.u u ) C v #.C % u #.! #.u ! #.% J ",
"u v v u l J v < v C ! u u l J u ! C C C ! J J J v J #.! J ! #.C v q q ..w.) C 8.J ..) l C l v J 8.J ..) < 5 ) ! ..8.C ! :.! C C ",
"q J ! l < 5 q 5 u v ! l ! l C C :.! ) l ) u ! ! ! ! ! ) v ! ! v J ! ! 8.b.:.l C C ..C z.:...u 8.C l h.A.C u ..C J ! v ! ) v C v ",
"C q 5 l v l u v 5 u J C 8.v J :.v u 8.! p.C #.) #...J ..u ! C v C 8...l ..p...C 8.p.w.J w...! C C C ! ....J C v J < ) C u J < C ",
"q ; l ! v J ..u v v C ) ..C q v C ) z...J u ) ! C v v #.p.#...p.J ) ) J ! #.) C ) ! #.! 8.p.C #.J 5 8.8.#.v ! ..u 8.u p.C 5 8.v ",
"5 l v l v C C C J C v J ..J l J J v ) v v u J l #...! J ! C C #.:.8.#.! ! ..#.) v w.:.8.J ; J :.#.u v v ) ....#.; J l C b.) C J ",
"q ) v 5 v l u ) ) J v J ..) J ) ..C ) ) ..J ) C u ) ) J ! ! ! ..! ! J l u v J C z.8.v :.8...p.#.C J ) ! ! #.J :.C J h.l z.J v p.",
"l ! v q l l l ) J J v J #...J ) C v ..8...C ! ! C 8.8.! ! ) J v v J ! J C J ! ! 8.l #.#.C ! ! w.v 8.w.#.C ..u ..:.J D.) ! v #.8.",
"J l v v q C ) C l v v J ..) v C C v ! :.) ! ! ) ) 8...l C :.8.:.C ! ) ) ) ) ....h.q C ! ! #.l u #.p.#.J l ..q J l C ) ! J ..:.u ",
"J q v J q C ..l v J J ! ..) C C #.J l ) ! #.) ! u C v l ) w.h.z.! ! J C C J ! ) ! #.! 8...v #.J J #.:.! l J u J + w.< l C J C J ",
"l l v v u v C v J ..! J ! ! J ) ! C l J l ) v q J ! J ) #.) J #.:.#...) ) ) ! ! ..) % u #.:.:.u v v w...J C C ! l z.q J v l v w.",
"q ! v 5 v l q J ! ..J l l v C ..C #.:.p.C ) C u #.) C J ! l J h...) ) #.#.) J v J ..:.q u ! l :.w.l ! v ! ) :.) :.C q w.....#...",
"< l v v C v v ) ! ) ) ..C #.u l l ! v J ) ! #.v ) v q J J q J #.C ..J J l :.) J v p.#.C J v J :.#.o b.#.! C ) u w.#.....) ....J ",
"C J v l C l q u C q 5 v v 8.C J #.) ; ; l ) w.) v ..! ) ) J ! l ..w...#.! ....) ..u p.D.v J V.u J C :.) :.w.J ..#...! ) :.8.:.#.",
"l C v l v u q u 8.J l v l ! u C :.8.! l u l ! C ! :.! J J ) ..l J #...:.w.) p.#.J v ) 8.! ) p.J J l l #.u 8.) u :.:.C l ! C 5 5 ",
"; l C l u 5 q C ! v J ! C J ! h.u ) :.#.) ! ..) ! ! l J ! J ) J ) #...:.p.v ..v v w.u q w.! u ) ..J l 8.5 :.8.q l J 5 ; v l < v ",
"q C C u u u q u u 5 J J J ! ..h.J ! ..) ..8.:.) l C v ) #.) ) v ..) ! ! 8.v #.C #...J #.8.! J u J w.C v ....J J :.h...J :.:.#.b.",
"J J l q J ! l 5 ! v ) C ) ) C v ) #.w...! ..C C v ..J C ! ..:.v 8...) C ! ! #.#.:.C C :...! 8.! :.#.#.v ) v v v w.w.! u l u 5 C ",
"v J l u J ) C l v u ) v #.:...C 5 C w...J ..! #...:.J v v J :...z.p.z.) u ) u J ) ..q v #.C ! w.V.C p.:.! ! ! J :...C v J ! ! ) ",
"q ! ) l u l l v 5 u :.v ! ) ) C ..! #.C C :.J ! ..J l ....l ! :.v J h.#.l p.v :.) :.C ) 8.u 5 C ! l J l #.:.5 p.) l q l C ....C ",
"! ! ! J l u l v % ) ) :.v C ) ....! q ) #.C ..! 8...w.u u w.) #.C J :.#.q :...z...; :.) l :.J J u v ) v 8.< u v J ..w.C J ....; ",
") J C C ! ! C l l v #...l #.l ..#.l % l #.) ! l J ! #.! ! ) C C J ) ! :.l C C v J l z.#.5 C ! ..J ..! u ! ) J < #.C ! C ! J :.) ",
"l u u v J ! J v ! 5 8.) v h.5 #.) J #.#.) J ! p.J ) C ) ! v ) ) C ) l 8...) w...:.#.w...u C ..J v ..#.J u ) J 5 v < u l C 5 v v ",
"5 u v v u q l C J ; ..) C p.5 #...u J J ) ..v ..! ! J C J ! ..#...! v ) J v ) J :.:.C C v ) p.v J v :.:.J J J v J v ..! ..! #.! ",
"v J ! C l q u v l u C ..J ..u ! ! q J C J J u ) C v #.v C w.J J p...w.:...#.#.8.v ) u v C ) b.#.w.q #.J 8.#...l ) v ! C J C 8.8.",
"C v l v ! ) ! C v ..v :.! J ! J C J 8.8.J l v w.) J w.l l h.J ! l < ..l l J v J ) ..l J #.:.h.#.w.v 8.< ) ) ..v ) 5 v ! ! ; u ! ",
"l u u C #.8...J J :.v ) v J ) J ..J l ) ..C C C ....8.C v #.#.w.C C #.l l v ! l :.#.C ) 8.#...) #.v :.u ! ! v ..:.J w.z.h.v J ) ",
"C ! ) #.:...J v C ! q u < C J C C ..J :.) 5 J ) 5 J ..:...J #.:.q C v 5 v C V...q C ....J q l 8.p.u v ..z.p.q 8.q u ) C J v ..! ",
"l v C J C l v C C ....) q ) ) 8.! C ..) w.#.8.:.) #.) v C J ) :.#.:.q J ) l ) 5 v J ..w.#.J w.h.p...! J #.) v p.q p...; l ) C J ",
"q u v J ! J ) #.) J C ! ) #.J J C l v l ! ! ..) :.:.#.#.#.! J #.J ..! ! ) ! C ; ) 5 ; l #.w.#.! ) ..#.) 8.8.J :.:.! C v u v ..w.",
"! ! ) ! v q q l ) l v ) w.) J v #.) v v u C v v ..! J #.8.) J #.#.J ) C J ..! #.h.v l 5 l J q l J ) ) l C ..J ....l ..#.5 C 8.l ",
"u l v C l q u C l l J ! 8.C #.) 8.8.J ! l ) v l ) J v J #...! #.v u ! p.h.) v C :.v ) q q J u w.#...#.C v ) ! #.:.! p.h.J #.w.q ",
"< q l v l u v ! q J ! C ..C w.#.J ) C ) J 8.) ! #.:...J ..:.) J 8.8.l J J u ! l :.v ! u ) w.v #...J ....) ) C ! p.v l ) ! v ! :.",
"J ! ) ! v q u C C ..v v ) ! p.! l J ! ....w.:...! 8.#.! #.w...C J b.#.8.w.#.w.; #.! ! C w.h.u v :.v ! ! J ! ! ..C u ; < v C J :.",
"u v J ! C l J #.! #.q ! ) ! #.v ! ..#.J ) ) #.) J ..) ! #.:...) #.p...) ..:.b.8.v ! v v w.p...8.z.) ..J v :.w.8.q C C u J 8.:.C ",
"q l C J v l J #.C ..5 8.) v ! C ) ..:.u C l ) ! 8.:.) ! ) ! ! #.) u C ) ) C C 8.p.p.u q :.8.#.:.#.C ) l q ..) q C 5 u C v C v 5 ",
"..) l v #.q ! J u l q C q ) C l F u l c B u.d r 1...o.z o.N.-.#...h.:.) ..v l v C ! ) C ..#.C 8.) 5 + ..) v 5 J l v J l ! u J :.",
"u l 8.J ! C ; u ..J u v v v l C ! ~ G F u [ G ) J G #.1.Y 1 u Z.v p.:.v ) ..8.) ! ....! ! ..l ..#.J l ) l q u :.) #...q ! C l % ",
"5 v #.C v #.u J ! C l l ) u u ) C -.^ [ r N [ q.C w.q.*.! v [ u.v 8.:.l ..) 8.C C ! J ! C #.l ) C ) ) :.v l u J ! ..) 5 ! J v % ",
"u ..5 ! ) #.#.J v J ) C 8.l u ) e #.Y 2.B c o.1.c f.] B ^ 1.q.s J ! ) ! 8.v J u l v v ! v #.l ) J ! J 8...) q q v l v q J q C ..",
"l ) < #.#.J v q v :.w.J :.l u ! d o.C 8.~ G ] ^ ~ O.G w.f.J ^ ..C C ! ) :.C ) v C v J ) v ..l C z.#.l ..! J l J u u v q C 5 v #.",
"l q ! ! C C < ..l #...l v l v ) ^ O.F -.~ ^ Y Y 1.^ Y v.N.Y G u.J #.) ! C ) 8.J J l ..) ) ..! C h.:.C ) l u q ! q v v ; J ! ! u ",
"u q ) u l C l w.l v u l u v C ) ^ ! ~ *.Y ..B [ ~ J U G [ ) z G ) 8.! ..5 ! #.C ! q #.! #.) ..C ! ) J ..l l 5 l v v l ; ) #.) q ",
"% J C v ..u ) q ) l q ..C J l C l l [ :.Y #.z *.Y ! -.C N J r ] J J q w.5 v C ! ..q w.J #.v ! q v ! C ! v ) v u #.C u 5 ) C C J ",
"5 l J ! ) ) ! C l l v ! #.< J J d v o.i...7 q ) ^ ) 7 ] -.) r q.J ! l #.) ..l ! #.l v ! l l ! J l 5 J ..! % C l #...q C C ..u l ",
"v C C v v C C C l u < C #.J ..C B e 5 d F Y ) O.8.~ q :.9.~ u u.#.#.v ! C C q C C u ! :.! C ) J l C C ) l 5 v u l ! J ) ) ....w.",
"C C v u u l v l C v < v C J C q ) ^ U c c ^ 9.f.-.9.[ ^ J o.G c ..) u C J J l ! l l ) 8...J J J C w.J ) v ! J ! ; v ....:.) ) ..",
"l v v l u l l u v ) v C 5 v u q N Y ^ G l d G [ G O.-.Y z ) ~ 5 C C l J ....J ) C C ! #.) v v v v #.u l l v v ! J C v < J v ! J ",
"u l l u u v v l u C v v 5 ! v C l r d Y ) G c B N 7 J 2.#.c G o.J J J J ..! C J ! J C ) ..C u u ) ..v l ! 5 l ) l l l < ..! J u ",
"u u q 5 q l C J l q q 5 q ! l u F B ~ 1.:.^ ^ :.F N ..1.q.B U -.J J J l ! v C ! C C C ) 8.) u l p.:.#.) 8.5 J ..< v J v ) C l 5 ",
"u u u q q l v v C q C q l C u u r B ) ) G C ) 2.J -.2.B -.^ ^ ! u C ) l ! l J ) C J C ! :.! l J ....) ..J 5 C v ! #.v 5 < l v ! ",
"5 u l l l l u 5 ! v w.J ! v C ..7 s u s Y q.q.] Y J B u u.Y J 2.q J :.J #.v C J ! ) v v ! C l ..C ..) 8.u C ) v q ! J ..) 8.v q "
};
