/* XPM */
static char *_908d39ab7234f6c958cefe43346d1edXvVBrwWhRtfRDvDm[] = {
/* columns rows colors chars-per-pixel */
"64 64 254 2 ",
"   c #0D0B01",
".  c #190903",
"X  c #171609",
"o  c #081412",
"O  c #171916",
"+  c #1D1D1D",
"@  c #270A05",
"#  c #370904",
"$  c #261409",
"%  c #351607",
"&  c #280B14",
"*  c #271915",
"=  c #361A15",
"-  c #19241C",
";  c #32240C",
":  c #29241C",
">  c #39261A",
",  c #1A1B22",
"<  c #251D22",
"1  c #1C2724",
"2  c #242424",
"3  c #272726",
"4  c #2C2C2C",
"5  c #372B28",
"6  c #36332B",
"7  c #2A3532",
"8  c #343434",
"9  c #3A3734",
"0  c #3B3B3B",
"q  c #4B150D",
"w  c #6C170C",
"e  c #492A12",
"r  c #45251B",
"t  c #58251A",
"y  c #6F291A",
"u  c #462925",
"i  c #572B25",
"p  c #493729",
"a  c #5A3729",
"s  c #522C30",
"d  c #463A37",
"f  c #5A3A39",
"g  c #682D29",
"h  c #762C27",
"j  c #68332C",
"k  c #77352B",
"l  c #672F30",
"z  c #683A36",
"x  c #783836",
"c  c #3C443A",
"v  c #54472F",
"b  c #44413D",
"n  c #5A4638",
"m  c #674538",
"M  c #7A433A",
"N  c #74593A",
"B  c #7C662D",
"V  c #3C3F44",
"C  c #623D42",
"Z  c #434343",
"A  c #494847",
"S  c #4B4B4B",
"D  c #554E49",
"F  c #504F4D",
"G  c #535353",
"H  c #595955",
"J  c #5B5B5A",
"K  c #784747",
"L  c #6E544E",
"P  c #795A57",
"I  c #72655A",
"U  c #57636B",
"Y  c #666766",
"T  c #79736F",
"R  c #95271A",
"E  c #8B2C2B",
"W  c #992B28",
"Q  c #87372B",
"!  c #97352A",
"~  c #9C332C",
"^  c #883734",
"/  c #8B3A33",
"(  c #983834",
")  c #A62D29",
"_  c #B72D2E",
"`  c #A3322B",
"'  c #A7372A",
"]  c #B8342B",
"[  c #A83733",
"{  c #B63935",
"}  c #C72B1E",
"|  c #C7372A",
" . c #D6392C",
".. c #C93A35",
"X. c #D93B34",
"o. c #E9302E",
"O. c #E53932",
"+. c #96492F",
"@. c #884338",
"#. c #96453B",
"$. c #A84731",
"%. c #A9453A",
"&. c #B7443B",
"*. c #C6463A",
"=. c #D54337",
"-. c #D24A34",
";. c #E6423A",
":. c #9F3A43",
">. c #BA3C43",
",. c #C93D46",
"<. c #874846",
"1. c #9B4A44",
"2. c #885549",
"3. c #995547",
"4. c #8A5A54",
"5. c #975A58",
"6. c #A94A46",
"7. c #B64947",
"8. c #AC5247",
"9. c #B95648",
"0. c #A85A56",
"q. c #B65854",
"w. c #8E6C51",
"e. c #96685A",
"r. c #AE6F53",
"t. c #AB6559",
"y. c #BB6756",
"u. c #9F5F60",
"i. c #B55961",
"p. c #866767",
"a. c #916F6F",
"s. c #8B766B",
"d. c #997968",
"f. c #987A79",
"g. c #A66865",
"h. c #B86966",
"j. c #A97665",
"k. c #BA7568",
"l. c #A47B78",
"z. c #B97977",
"x. c #C94948",
"c. c #D94A44",
"v. c #C95749",
"b. c #D8594A",
"n. c #D54954",
"m. c #C85956",
"M. c #D95A54",
"N. c #EC4F4B",
"B. c #E5564A",
"V. c #E25D52",
"C. c #E65957",
"Z. c #D2684F",
"A. c #C96759",
"S. c #DC6454",
"D. c #D76859",
"F. c #C8765A",
"G. c #F8624F",
"H. c #E56355",
"J. c #E86758",
"K. c #FA6757",
"L. c #CA5C64",
"P. c #D95963",
"I. c #E65663",
"U. c #C66763",
"Y. c #D86966",
"T. c #C87767",
"R. c #D87769",
"E. c #C96671",
"W. c #C57974",
"Q. c #D67B74",
"!. c #E66B65",
"~. c #E57368",
"^. c #F6706E",
"/. c #E77D76",
"(. c #AD8A5B",
"). c #AE975A",
"_. c #968D76",
"`. c #B5866C",
"'. c #B08E6C",
"]. c #AA8978",
"[. c #B98778",
"{. c #B89579",
"}. c #C7915C",
"|. c #C6A15C",
" X c #CE8D6A",
".X c #C78977",
"XX c #D68777",
"oX c #C6957C",
"OX c #D79679",
"+X c #EC8270",
"@X c #E8867A",
"#X c #D1AF76",
"$X c #E5BD7B",
"%X c #DAC27A",
"&X c #8F7F82",
"*X c #AD7E81",
"=X c #EA7D85",
"-X c #8F8C8B",
";X c #98888B",
":X c #A48684",
">X c #B98787",
",X c #A99688",
"<X c #B89589",
"1X c #A79696",
"2X c #B89894",
"3X c #B4A497",
"4X c #A4A3A1",
"5X c #B5AEAD",
"6X c #DA8885",
"7X c #C89986",
"8X c #D79889",
"9X c #CB9692",
"0X c #ED8D8B",
"qX c #E79589",
"wX c #C8A78B",
"eX c #D7A985",
"rX c #D8B687",
"tX c #C8A899",
"yX c #D7A897",
"uX c #D0B593",
"iX c #EDAE91",
"pX c #E6A898",
"aX c #D69DA4",
"sX c #C9AAA4",
"dX c #CAB5A8",
"fX c #D7B6AF",
"gX c #D9B8A8",
"hX c #C8BAB7",
"jX c #E7ACA6",
"kX c #F1B4AE",
"lX c #DDC890",
"zX c #EDCD95",
"xX c #EDE39D",
"cX c #D6C4B6",
"vX c #F4CEAD",
"bX c #E6C8BA",
"nX c #FBEAAD",
"mX c #BCC6C7",
"MX c #CDC3C3",
"NX c #D7C7C7",
"BX c #D9D0D2",
"VX c #F8D8C9",
"CX c #EAD5D1",
"ZX c #DEE9D9",
"AX c #E5EBDB",
"SX c #F9E6DB",
"DX c #DBEFE6",
"FX c #E8E7E8",
"GX c #F8EAE9",
"HX c #E7F8EA",
"JX c #FCF5EB",
"KX c #E9F7F3",
"LX c #FAF8F7",
"PX c #FDFDFC",
/* pixels */
"9 2 2 8 8 0 9 O 8 9 Z 9 0 Z 4 4 G 8 S 9 2 A Z J 0 2 0 G 0 O S V A J 9 9 A 2 A V S S A 9 9 A S S G 4 A 2 S 9 8 Z G Z J 9 A Z 4 G ",
"4 8 0 0 8 9 0 0 2 4 8 2 4 8 2 9 9 4 A V 8 V 9 Z S 0 4 9 4 Z 9 V 9 G A S J 9 G A 8 9 8 8 9 S J J 2 9 9 Z 9 V 2 9 Z + 9 0 A 8 - J ",
"8 9 8 4 9 0 0 Z 4 8 9 4 4 8 4 A 4 9 0 9 9 8 8 0 A A 9 4 8 Y 8 A 9 G A Z S 8 G S S S A 0 0 V 0 9 4 A G 9 Z 4 A Z 2 4 Z 4 2 G A A ",
"9 0 2 + 9 9 8 9 9 9 Z 0 Z Z 9 S 8 A 9 8 0 9 8 0 9 0 J 9 A Z 0 Z 0 A 0 8 A 4 A A A A Z A A A 0 9 9 S G 9 H 4 J A 9 2 8 Z 2 0 9 A ",
"8 Z 9 2 4 4 4 0 4 4 8 8 Z A 9 A 4 0 8 0 G A 9 9 0 9 G G A 2 A 4 9 Z Z 0 G V Z 9 9 9 9 A A A V Z 4 Z 4 S G Z 0 0 0 8 0 H 9 A 0 Z ",
"9 9 8 4 8 9 8 9 Z 0 0 4 9 Z 8 0 8 8 8 8 A A 0 V S 9 4 Y 0 9 G 0 Z 0 0 8 .X#.1.#.y h 3.t.[.yX{.].tX].4 0 G 0 2.w.2 V G G A J S 8 ",
"9 4 4 8 9 V 9 2 A G G 8 9 A 9 0 0 4 0 4 4 Z 9 A G 9 4 J A A A G .Xt.k w E / 6.( q.6.1.y k .XkXyXdXtXd.e.kXVX8Xh.t..X.XyXJ 4 4 Z ",
"4 8 A A 4 8 0 8 4 A G 9 9 S 0 0 0 2 G Z 4 0 4 8 A 9 G 0 jXyXj.@.h / 1.h.k.0.h.k.k.0.t.h.0.1.qXpXtX3Xd.4.7XpXU.Q.U.U.q.h.z.9 Z A ",
"+ 2 9 S A 8 4 9 8 G 9 9 9 J 0 9 J F A 0 9 9 A G Z 9 4 7X3.y k 1.h.6Xk.g.[.fXJXSXJXJXVXj.<.h.Q..X,X3X2Xg.k.i.P.P.P.P.Y.q.t.j.4 4 ",
"4 8 9 9 A G A 4 8 A 9 Z 9 A 9 0 9 V Z S V 0 0 A A 9 @.t <.k.z.6XW.0.g.bXJXJXJXHXHXZXJXJXtX@.W.jXdXdXtXz.W.L.P.I.n.I.P.U.k.e.A 9 ",
"4 9 9 9 9 V 0 4 4 9 0 S 9 9 9 Z 9 Z 0 S 8 9 9 G 5.x 2.z.z.z.h.2.u.g.2XSXJXAXHXKXKXKXHXJXSXd.4.yXhXhX2Xz.E.E.P.I.I.I.m.m.h.e.0 0 ",
"8 4 4 9 9 4 4 9 8 8 Z S 9 9 A A 0 A 9 A 4 Z b l.M g.z.u.5.u.>XkXVXLXJXJXPXLXHXKXDXHXLXAXLXVXm 2XhXhX2X*Xi.U.m.P.n.x.m.q.t.7XO 0 ",
"9 2 + 8 A Z 9 8 9 9 A 0 4 9 A 9 8 9 9 A Z S kXe.>Xl.p.f.fXGXLXLXLXJXGXGXPXPXLXLXPXGXLXPXJXLXI _.cXMX3X>Xg.h.E.Y.A.R.R.XXr.yX+ Z ",
"8 9 9 8 9 V 9 2 9 0 A 8 8 9 Z 4 A 0 0 0 A VXgXl.P P dXLXJXGXLXLXPXZXLXPXLXPXPXBXNXPXGXLXGXJXs.T hXMXhX2Xl.7X8X6XXXiX XiXoX[.0 0 ",
"4 Z A 9 2 4 4 4 8 9 A 9 A 9 0 0 G A A 9 A VXf.L :XCXGXBXFXPXKXDXDXLXPXKXKXKX-X8 , mXLXLXLXJX;Xs.5XhXNX3X2XtXgX7XoXeX`.pXiX`.b 9 ",
"0 4 4 9 9 8 8 9 4 8 Z 0 J 9 V G 9 8 H Z VXbXP s.NXBXFXKXKXKX4X7 7 mXPXFXPXmXV 1 4 T LXLXLXPX3XP sXfXNX3X2XtXyXd.wXuXrXoXiXZ 2 0 ",
"4 2 9 A 9 Z S 8 9 9 0 A S 0 4 9 0 A Y VXSXs.I MXNXFXFXFXPX5XS - 1 -XKXLXPX5XU o o 4XKXLXPXGXhXp.yXyXgXsX>XjX9Xj.wXlXrXzXiX4 J 9 ",
"4 9 9 9 9 0 0 V Z 0 9 Z S Z 9 d Z 9 vXbXbXI ,XMXMXFXFXLXPX5XZ   * 4XPXGXPXBX-XG Y FXPXCXGXLXNXf .X8X[.<XjXkX7X[.lXrX{.#XiXA 0 Z ",
"4 A 9 4 9 9 8 A A Z 9 Z S A Z S F vXvXbX<Xp.hXNXCXFXFXGXJXMXT D L VXLXGXLXCX2Xl.aXkXkXkXVXkXaX>X8X.XtXgXgX9X7X`.{.wXrXrXOXZ 9 Y ",
"9 A 9 4 9 9 9 A Z Z 9 Z gXuXwX{.'.'.<X<XL ,XfXcXSXSXGXLXJXBX3Xs.yXvXgXtXsXsX*X6X0X0X0X0X6X6XkXbX[.j.tXbXgXtXVXnXzXnXnXzX}.9 G J ",
"V 9 9 9 4 0 A 0 9 9 7X7X7X{.{.'.7X{.wX].4.gXdXcXbXfXdXsX3XtXtXtX8XOXoXjXjXjX6X0X^.=X^.!.Y.6XjXyXgXgXcXdXuXwXvXnXlXxXnXlX(.S G 8 ",
"Z 4 9 V 4 0 S 9 9 {.`.oX7X[.oXoX{.'.{.w.e.tX<X7X<X<X9XwX7X7X7XoX XT.T.XXT.qX0X@X^.C.c.!.R.U..X7X4.d.cXcXuXuXvXnXlXxXnX#X'.Z 0 Z ",
"9 9 9 9 8 9 V 9 [.[.[..X.Xk.k.j.`.`.oX`.7XpXpXpXjXpX8XOX.X X X X XOXOXOXXX@X/.!.J.H.V.S.A.R.qXz.# = 3XVXwXlXzXzXnXlX|.B w.9 0 J ",
"4 A 9 4 9 9 4 {.7X8XpXiXpXpXjXqXOXpXeXkXpXpXpXXXk.T.A.A.F.F.F.F.F. XT.T.@X+XS.S.b.b.b.S.D.Q.Q.<.@ @ s.uXuXzX|.#X%XzXlX(.w.F F S ",
"2 9 9 9 0 9 0 pXpXqXqX0X0X0XqXqXqXXXT.T.T.Q.T.A.A.D.D.D.D.D.D.D.~.~.Y.D.~.D.&.b.b.*.Z.D.F.T.XXg = . m bX'.#X#X$XzX$XnXzXN @ S Z ",
"0 Z 0 9 0 9 7X8XT.Q.Q./.@X@X/.R.XXQ.T.U.Y.D.D.D.D.D.S.S.S.H.J.J.M.C.~.Y.m.9.+XiX+XZ.v.D.R.XXk.# @ @ m bX(.#XzX|.$XzX#XrXN % G F ",
"9 0 9 8 9 8 7XXXXX@X@X/./././.~.R.R.R.Y.D.D.D.S.J.H.H.H.J.J.J.J.!.Y.U.0.j.[.vXqX+XZ.b.S.R.XXj.r = > @ yXeX#XnX$X}.OX#XzXd.% 2 4 ",
"2 9 0 8 8 oXoXT.XX/.~.!.!.~.~.!.Y.~.~.!.J.S.J.J.H.H.J.J.K.J.H.S.m.i.g.j.].w.gXiXv.v.B.J.~.Q.g.z D d % wXrX#XxX#X}. X XeX2.% 2 9 ",
"4 0 0 8 8 j..Xk.y.A.D.Y.!.~.!.D.S.S.S.S.H.V.V.V.V.V.V.H.H.H.H.Z.g.tX,XI _._.lXOX*.c.G.K.^./.h.4.T d m wXr.$XnX}.r. Xy j.N w.G Y ",
"V Z 9 4 {.j..XT.T.Y.D.D.D.!.!.J.S.M.M.M.V.V.V.V.V.V.V.M.M.S.H.Y.kXVX:Xn _.wXeX9.v.B.G.K.!./.W.9X3XI P j.w.zXxXiXy y.r.7Xv m 4 0 ",
"9 Z tX{.d.`..X.X@X/.D.v.v.S.D.D.S.M.M.V.V.V.V.V.V.H.J.J.S.S.D.Y.kX=Xi.h.T.8.&.b.B.G.K.J.D.k.w.,X4X1Xd.@.(.rX).vXOXy..X`.v v A A ",
"4 A gXd.2.`.j.j.XXXXY.D.Z.S.S.b.M.V.V.V.B.B.B.V.B.H.!.!.J.b.v.m.L.i.E.Y.m.C.J.B.B.G.G.^.~.t.% $ : T 2Xw.w.oX(.vXF.y.k.d.p v S 0 ",
"A A tXm g.z.e.e.`.jXT.A.D.S.*.H.b.b.B.B.B.B.N.N.N.B.B.B.M.b.*.` ( :.L./.!.C.V.M.b.J.K.N.c.&.h v ;   p.bXw.N {.vX9.%.t.e.p > S 2 ",
"A Z ,Xa 0.g.5.4.].8Xy.v.9.M.M.b.M.M.b.b.B.B.B.B.C.B.V.M.v.*.' ' E ( E m.^.C.J.J.Z.J.K.N.N.x.y p v u $ P L N eX}.+.y.W.d.p p G A ",
"8 8 4.t 0.q.0.h.0.q.[ [ ~ &.n.c.M.M.M.M.M.M.M.M.M.m.m.q.8.( ( #.k y w [ C.N.c.=.-.-.;.O.c.%.q $ > n @ = p m .X+.R.F.3.m p p 9 9 ",
"2 8 a t q.7.m.L.7.[ W ~ E ! >.x.x.v.m.m.9.7.6.6.1.#./ x x x <.2.<.q / &._ N.X. .=. .O.X.c.%.; X   p f * > m 3.+.! Q q q f L G A ",
"9 Z r t 8.[ >.,.{ { W w h x E ( ( E ^ ^ ^ k k l l z K K p.*X:Xl.j q q.7.) c.;.X. . .;.;.b.%.; ; ; $ f * * n #.%.R T.e.f i 0 J J ",
"0 9 % a 1.` { _ ) >.W q t P <.x x x x x K K P P p.f.1X3X3X1Xp.K t 3.9.&._ } X.X. . .O.=.x.! % ; p $ 5 5 * p 8.8.y.t.i % x 2 8 A ",
"9 8 X a @.[ { _ _ >.6.q > I f.a.a.a.a.f.f.;X;X1X1X1X1X;XT d & @ @.R.v.x.*._ =.=.-.=.=.=.x.( q e r > u f 2 u 1.q.y.3.m L <.0 Z A ",
"0 Z   a k [ [ ` { ` q.t . 9 T -X;X;X;X;X-X-XT T T D d 5 @ . r <.A.v.b.x._ ..=.| =. .X.=.x.( t i r r u u O p / U.#.k r n 4.9 S A ",
"9 9 X e #.~ [ W W 7.q.h $ X 1 7 S Z V V V 8 2 + X $ $ # # q <.h.m.b.b.=.| | ..=.=.} X.c.*.6.k q @ a u d 2 5 <.y.1.<.d > g.A 0 Z ",
"4 8   e / ~ ' ' [ 7.7.( i X o o o o o O O O O * = @ @ # w / 8.9.m.M.b.c.......X.O. .;.=.v.%.1.k q t s f 2 5 <.1.y # > d 4.K S J ",
"A A . q ( ~ ! %.&.7.x.>.k r * + O , 2 2 * : 5 u t M t.y.q.9.v.v.v.b.c.=.....X.X.o.O.;...x.w / @.M t s C 4 6 K g q @ X 9 P a J 9 ",
"4 8 % q / ~ E [ [ x.n.>.1.5.a.s.P T s.f._.:X<X9XjXpXQ.%.` ] *.x.*.*.*.......X.X.o.o.O.=.9.w 1.3.@.k z f 2 9 u # # = O 9 P m J 4 ",
"2 4 = # h ( E ( [ x.n.,.6.0.z.[.tXtXtX9X>X[.[.W.t.8.( W &.b.b.*.&.&.{ ....*.=.X.o.o. .=.$.Q 8.y w @.K f 2 b X $ = @ + 9 A L A G ",
"0 Z r @ t #./ ( [ { ,.x.%.! ( 8.0.5.0.0.0.0.0.8.( %.&.{ { { { { { ] ] ..{ &.&...X.;.| | $.y.q.w w / K f J T O * * * + 2 S T Z G ",
"8 9 n $ % M / ! W ) { x.7.%.[ &.6.6.6.6.6.%.%.[ ~ ` [ { &.&.[ ) ] ] _ { [ ' $.$.] | ] ' v.A.m.9.! Q <.s &X-X- O . : < , Y 4XG 0 ",
"4 9 I ; % x @.^ ( [ ) ) [ %.] ) W W ` ` ` ` ` ) [ [ [ [ [ ` ` [ ] _ _ { [ ! +.+.' ' ' R 9.w R Y.6.k 5.i p.S o O : . * + S -X9 2 ",
"S S 9 % % j x ^ ( ( [ [ [ [ _ _ ) ) ` ) ) ' [ { { [ [ [ ` ~ ~ W W ` ` W E / ^ k k k @.Q T.! R 7./ 4.K u dXd   X   X   X 6 _.Z G ",
"8 9 J V A r K x ^ ^ ( ( ` [ [ [ ` ` ` ' ' [ [ [ ` ` ~ ~ ~ ! ! ! ! ! ! / ^ x x z m a i k t.q.9.6.5.*Xq <X,XD b n A G S 4 A V 9 + ",
"4 0 G 0 9 @ z x x ^ ^ ^ E E W W ! ! ! ( ( ( ~ ~ ! ! ( ( / / / / Q Q k k g i r r = @ f z M 8XW.k.g.K u sXs.D 8 Z A S A 4 A Z 9 + ",
"8 S 2 Z A @ = s z x x x ^ ^ ^ ^ Q / / / / / ^ ^ / / ^ ^ x k k k j g i i u = @ @ . * 5 dXf.i M e.K i <XsXn A 4 4 9 9 9 4 Z 4 0 S ",
"9 A 2 G G p = = u u i l z x x x k k x x x x k k j j j g i i i i u > > u u = * O + 2 X 5XhXI f p p s.CXs.I Z 9 Z 8 8 9 4 0 4 0 G ",
"9 4 A Z 0 0 2 * @ $ $ = = = r r i i i i i i i i i i i i u u u u 5 5 5 6 6 4 < + O O - 1 -XJX5X,X1XNXs.v 9 6 4 A 4 9 9 2 Z A A 8 ",
"8 4 A 8 9 0 9 b : * * $ $ $ $ $ > r > u u u u u u u u u u u u 6 6 7 6 6 6 4 2 + O 2 - o c T 5XZXcX3X> S 9 9 4 9 9 9 9 2 A G A 4 ",
"+ Z 0 9 S 8 A 4 A 9 4 S 0 5 6 0 9 9 S G Z G 9 G Z Z 5 5 6 6 6 6 7 7 7 4 6 9 8 2 - o 1   2 - c H v   0 A 9 A 9 8 G 0 8 4 A 0 0 Z ",
"4 9 Z A A A A 0 9 9 9 A G 2 Z Z 9 9 F Y S 4 4 A A A 4 S G A 6 J Z A 9 G A d 9 6 4 : O O X X       6 Z S A + 0 8 G S 4 0 0 S 8 9 ",
"9 0 0 9 9 V V 0 9 4 2 0 G Z S 0 0 4 4 8 d Z A F J A 4 G J A 8 J G G 9 A 0 0 4 0 0 8 A G A 0 A Z 9 V 0 A 9 4 9 8 9 A Z A A S S J ",
"0 0 9 8 8 9 9 9 0 9 2 9 0 Z 0 4 A A Z 9 9 A J Y G J S A Z F b 9 S A 8 0 Z Z 9 A 9 9 A J S Z Z Z V J Z A 9 A Z A 2 0 S S H A A F ",
"9 9 9 8 8 9 9 8 0 A 9 0 4 0 8 4 0 Z A b 9 8 b S b F G Z 9 S A 4 0 0 9 Z S S Z A 0 0 A G A 9 9 0 9 G 8 9 9 9 9 A Z 0 9 2 Z 0 Z Z ",
"4 8 9 8 8 9 9 9 8 V 9 9 4 A 9 0 9 6 8 Z A b 9 0 0 4 Z H F 9 b F V Z Z Z S A 0 Z A Z 0 A S 0 8 8 A S 9 9 A 4 9 A 9 9 9 2 S Z Z 8 ",
"8 8 4 4 4 9 0 V 8 4 4 4 4 A 9 8 d 0 A H G A A G b 0 S H J 0 Z G V Z Z 9 A 9 0 A V 0 0 A G A 8 9 Y G G A J 4 Z S 2 9 Z 9 A 0 9 4 ",
"4 8 8 4 4 9 9 9 V 4 0 4 9 0 4 8 6 0 A A b 0 A H Z G H 0 G A A A 8 0 A 9 A 9 Z A V Z 0 A G A 9 Z S S A S Z 4 0 0 A G 0 4 2 9 9 A ",
"4 8 9 9 8 9 4 2 A 9 J Z A 9 0 S 4 8 8 8 Z J J S Z Z 0 8 J Z Z H 4 Z G Z G 9 0 Z A A 9 9 A 0 9 F 0 S A J 8 0 A 9 4 A Z S A H 9 4 "
};
