/* XPM */
static char *a7e8912ff9e4417de99200d39e496d189WorYlRaG25H9PXm[] = {
/* columns rows colors chars-per-pixel */
"64 64 210 2 ",
"   c #141414",
".  c #1D1D1D",
"X  c #242424",
"o  c #292826",
"O  c #2C2C2C",
"+  c #302F2E",
"@  c #31302F",
"#  c #343434",
"$  c #383735",
"%  c #3A3937",
"&  c #3C3C3C",
"*  c #403F3D",
"=  c #41403E",
"-  c #434343",
";  c #484745",
":  c #4A4947",
">  c #4B4B4B",
",  c #504F4D",
"<  c #52514F",
"1  c #535353",
"2  c #585755",
"3  c #595856",
"4  c #5B5B5B",
"5  c #794C47",
"6  c #605F5E",
"7  c #62615F",
"8  c #5F5C67",
"9  c #7E5F64",
"0  c #5B6275",
"q  c #636363",
"w  c #6B6B6B",
"e  c #72716F",
"r  c #686576",
"t  c #696478",
"y  c #727171",
"u  c gray47",
"i  c #EB481F",
"p  c #DE5135",
"a  c #EB4C2F",
"s  c #E7582E",
"d  c #F44D32",
"f  c #F64F3C",
"g  c #EC5533",
"h  c #EF553B",
"j  c #EB5D3D",
"k  c #F45234",
"l  c #F55D38",
"z  c #F15C3C",
"x  c #ED643C",
"c  c #EB6B3D",
"v  c #F3653D",
"b  c #F7673D",
"n  c #8D5B5C",
"m  c #9D605F",
"M  c #8F6C73",
"N  c #EF5F44",
"B  c #F45D43",
"V  c #FB5A44",
"C  c #F75F50",
"Z  c #EE6444",
"A  c #ED6B44",
"S  c #ED6649",
"D  c #EB6C4A",
"F  c #F36443",
"G  c #FC6445",
"H  c #F16A44",
"J  c #F86D46",
"K  c #F4654B",
"L  c #FA624C",
"P  c #F46B4C",
"I  c #FA6C4E",
"U  c #ED7344",
"Y  c #F6754A",
"T  c #F3724C",
"R  c #EC6954",
"E  c #F46B53",
"W  c #F96C52",
"Q  c #FA6B57",
"!  c #F36C5A",
"~  c #ED7254",
"^  c #EA7755",
"/  c #EC745B",
"(  c #F37355",
")  c #F97351",
"_  c #F37953",
"`  c #F2755B",
"'  c #FC765B",
"]  c #F3795B",
"[  c #EF7567",
"{  c #EE7B63",
"}  c #EF7A68",
"|  c #F67461",
" . c #F27D62",
".. c #F27D6B",
"X. c #ED876D",
"o. c #F68467",
"O. c #EF916F",
"+. c #EE8A76",
"@. c #F58673",
"#. c #F58E73",
"$. c #FB8976",
"%. c #F68C7C",
"&. c #EE947A",
"*. c #F29376",
"=. c #F5937D",
"-. c #FC927E",
";. c #696A87",
":. c #736D86",
">. c #7C6F81",
",. c #737081",
"<. c #7A7885",
"1. c #787688",
"2. c #7C7D89",
"3. c #7F7A94",
"4. c #807C8E",
"5. c #827E95",
"6. c #8C7D90",
"7. c #85838E",
"8. c #858097",
"9. c #888596",
"0. c #8A8893",
"q. c #85839D",
"w. c #8A839B",
"e. c #998C92",
"r. c #A6979C",
"t. c #8B87A3",
"y. c #928DA2",
"u. c #948FAD",
"i. c #8F92A5",
"p. c #9691A6",
"a. c #9E9AAD",
"s. c #A19FAD",
"d. c #ACA2AB",
"f. c #ACA7BB",
"g. c #F88D83",
"h. c #EE9385",
"j. c #FB9481",
"k. c #F79988",
"l. c #F49C8B",
"z. c #F99F94",
"x. c #F0B28D",
"c. c #F9A796",
"v. c #FBAB93",
"b. c #F5B498",
"n. c #FDB19B",
"m. c #D1AFB0",
"M. c #F6ABA6",
"N. c #FAB7A4",
"B. c #F2BDA4",
"V. c #FDB5AC",
"C. c #F3BBAA",
"Z. c #FDBCAB",
"A. c #FDB6B4",
"S. c #FDBDB5",
"D. c #ECC4A8",
"F. c #FBC4AD",
"G. c #F3C5B3",
"H. c #FDC2B4",
"J. c #F6CAB5",
"K. c #FDCBB6",
"L. c #F6C7B9",
"P. c #FCC4BD",
"I. c #F4CABB",
"U. c #FCCCBD",
"Y. c #F8D5BE",
"T. c #B3ADC3",
"R. c #B3AEC9",
"E. c #B4AECA",
"W. c #F2BEC0",
"Q. c #FECBC3",
"!. c #FBC9C4",
"~. c #EEDDCC",
"^. c #F3D4C5",
"/. c #FDD3C4",
"(. c #F5DAC5",
"). c #FDDAC6",
"_. c #FDD6CE",
"`. c #F5DBCC",
"'. c #FCDBCE",
"]. c #EFDDD1",
"[. c #F7D4D0",
"{. c #FDD6D3",
"}. c #F5DCD3",
"|. c #FDDCD3",
" X c #FFD6D9",
".X c #F4DEDA",
"XX c #FEDDDB",
"oX c #EDE6CC",
"OX c #F3E4CB",
"+X c #FBE1CC",
"@X c #F5E3D3",
"#X c #FCE2D3",
"$X c #F5E4DC",
"%X c #FDE3DC",
"&X c #F6E9DB",
"*X c #FBE9DE",
"=X c #FDDDE2",
"-X c #EEE5E6",
";X c #FEE3E2",
":X c #FDE9E3",
">X c #FFE4EB",
",X c #F5EFE8",
"<X c #FDEEEC",
"1X c #F5F0EA",
"2X c #FFF3ED",
"3X c #FDEEF5",
"4X c #FFF4F3",
"5X c #F7F8F6",
"6X c #FDFAF5",
"7X c #FBFCFB",
/* pixels */
"$ X o # # & $   # % - $ & - O O 1 # > $ X ; - 3 & o & 1 &   > - ; 3 % $ ; o : * > , ; $ $ ; > > 1 O ; o > $ # - 1 - 4 $ : - O 1 ",
"O # & & # $ & & o O # X O # o $ $ O : * # * $ - > & O % O - $ - % 1 : > 3 $ 1 ; # $ # # % > 3 3 X $ % - $ & X # - . $ & ; # X 3 ",
"# $ # O $ & & - O # % O @ # O ; O % & $ $ # # & ; ; % O # q $ : % 1 ; - > # 1 , , > - & & - & $ O : 1 $ - @ ; - o O - O X 1 ; ; ",
"% & o . $ % # $ $ $ - & - - $ > # ; $ # & $ $ & $ & 3 $ ; - & - & : & # ; O ; ; : ; - ; ; ; & % % , 3 $ 3 O 3 : % X # - o & $ ; ",
"# - $ o O O O & O O # # - ; $ : O & # & 1 - % $ & $ 1 1 ; . ; O % - - & 1 * - % % $ % ; : ; - - O - O > 1 - & & & # & 3 % : & - ",
"# % # O # $ # $ - & % O $ - # & # # # # - : & * > % O w & # 1 & - & & # 1 : : - ; & - > > * & - & % # & 1 & - : o * 1 1 > 4 , $ ",
"$ O O # $ - % o : 1 1 $ $ ; $ & * O & O O - % ; 1 % # 4 ; : : 1 > - & O : ; > 1 * % - 1 1 ; : 4 4 ; 3 o 1 # > 1 % o O < 6 O O - ",
"O # : : # # & # O ; 1 % % > & & & o 1 - O & O # : % 1 & 1 $ o ; > : 1 & 1 > : > : - ; 1 > % * 1 > 3 q & # & O - 1 1 : & 3 % - : ",
". o % > : $ O % # 1 % $ % 3 & $ 3 , ; & % % ; 1 - $ @ 1 - : % % > $ - 1 : : 1 : - - - : O ; : & # % : 1 : * * ; 1 & 4 ; - 3 O O ",
"O # $ % : 1 ; O # ; % - % : % & $ * - > & & & : ; % % : * - & $ 1 % : 4 : & : 1 : 4 u $ % : u 1 3 O % > & > 4 $ - 1 : > > ; : % ",
"O % % $ $ = & O @ $ & > % % % ; % - & > # % % 1 : ; > - - & ; % O $ 1 q 3 > 3 4 & : 3 1 - 1 3 1 * @ : q 1 > > # O : & & ; % % & ",
"# O O % $ O 0 3.R.# - > $ % ; ; & ; $ ; O - - 1 : : 4 - ; - 1 & % 1 q 3 ; ; ; & 1 1 - q 1 q ; ; - 3 - O & # O 6.;.y.: O % ;   & ",
"% o . # ; - r q.T.$ ; & O % : % # % $ > - > ; > & ; 4 ; : : 3 - : > : & % $ & ; q q 4 O : : 1 # # : & % 1 & . 2.:.y.1 # ; 1 . * ",
"# % % # $ - M e.m..X6X5X6X4X6X6X7X4X*X;X:X*X:X>X6X6X2X4X3X7X7X%X;X:X:X%X%X1X7X7X5X6X6X7X7X:X;X%X;X%X;X<X5X6X6Xr.e.d.& ; 1 ; & & ",
"O - ; $ o ^.h.h.+.M.;X%XXXXXXX%X|.c.#.%.%.O.#.M.;X%X#X%X.X&X'.z.@.*.*.$.+.F.'.XXXXXXXX*XQ.k.g.&.=.g.h.!.:XXXXX=X;X;X6X; : % & % ",
"& O O $ % K.C ) T c.%X].#X_.|.@X^. .T | | U ) H.XX|.|.|.}.@XF.! Q ^ ^ ' [ U.#XXX|.|.|.+XN.R I Y ( W @.).oX|._.XX_.}.<X& # - o & ",
"O X $ ; % I.z F W {.}.}.XXOX{.*Xx.K ( ( ` D o.;X'.=X|.OX X%X&.I ( ` ` A k.:X^.XX|.`.`.%X@.J / ( ` S V.*X_..X_.|.;XK.^.q & O 3 % ",
"O $ % $ % L.v B =.|.`.XX|.+X|.|.#.E _ ( ` P n.XX_.XX|.|.|./.{ P ( ( ( ~ Z.%X'.}.|.'.%XP.~ ( ~ ( ( ] Q.|.|.|.|.|.;Xv.!.& w : & - ",
"O : % O % J.x F G.#X_.XX_.|.*XZ.L E T ~ ( ' /.|._.|.|.|.&Xn.E ( ( ( T @.|.|.|.|. X'.*Xk.D ` ( ( P k.%X'.@X|.|.XX#X .P.$ w - % q ",
"$ ; % O $ J.g o.#X_.|.{.'.|.@X-.V D P D F j.%X`.|.|.|.|.@X@.K _ ~ W H N.&X{.|.+X X|./.| T ~ ] ) P H.*X|.}.|._.%XK.K U.: ; % 1 3 ",
"- $ % % O J.k v.;X'.#X_.|.%XY.Q B A L Z F H.XX|.|.|.{.%XG.Q ( ( ( W ( /..X_.}.#X|.;Xb.E ' P ` K o.|.}.|.|.|._.*Xl.F U.; - > 1 # ",
"- O % - O J.K Y.XX_.XX|.`.%Xx.z S c L j  .|.|.|.|.|.|.#Xl.I ~ ( _ W j.@X|._.XX'.|.%XO.P ( ) ~ P v.;X{._.XX`.XX).} F U.$ & - & - ",
"$ $ % % # H.#.%X|.|.XX|.|._. .x Z H F N c.%X|.|.|.|.%XU.( K E P P ` S.%X'.|.XX|.%XS.~ ) E ` P  .Y.XX|.'.#X[.;Xn.E H U.- % $ % 4 ",
"O ; % O % H.b.>X+X|.XX'.XXP.V c F K c E /.|.|.|.|._.*Xb.z x L A F  .XXXX(.|. X|.*Xk.E _ ! / T =.&X{.|.#X`.|.=X%.W D U.4 > > 1 > ",
"o $ % % & ;X{._.+X|.`.|.|.=.z K L U l %.:X_.+X XXX}.oXo.l J Z H l c.*X`.).|.$X|.[.] I W ( ( A F.#XXX X'.|.;XG.I [ c !.> : > > - ",
"& - % $ & 2X|.|.|.XX}.XX/./ x H Z H j Z.;X_.|.XX XXXH.R z K K F E K.XX|._.XX X%XV.R ( / ` ^ X._.|.}.}.|.|.%Xc.S ` b U.: 1 4 1 1 ",
"$ & % # % 2X}.`. X|.|.%Xv.z b v P b { #X|.`.'.|.XX#Xj.j A P P j %.#X}.{.}.XX|.'. .j A D I S c.;X|.'.@X|.@XU..._ ! G Q.$ ; & O O ",
"X $ & # # 2X|._.;X~.%X%XX.F K S K B c.;X|.#X|.|.*XY.! F S P Z F S.&XXX|.XXXX*XH.H I H S G D /.XX{.#X|. X*XZ.! ~ _ A I.X % $ o % ",
"O & & # # ;XW.Q.C.Z.Z.c.p s k h g j n.A.C.B.Z.Z.V.=.a k d h d b N.C.Z.B.V.V.D.+.i f d g k T F.Z.H.B.N.G.Z./ j L G B H.- 1 1 1 w ",
"- - $ O - ; 9 M r.XX:X|.U.J.H.P.H.U.,X>X,X$X>X;X3X{.L.U.P.I.I.`.;X:X;X;X;X>X&XQ.U.!.Q.U.H._.1X>X;X%X;X-X;XQ.G.m 5 n ; # $ # O & ",
"% - $ # * : 8 <.f.# : % 1 1 > & O & 4 > - > ; 1 > 1 - % % - 1 > w q w : # : # - : > O % 1 & ; 4 y & q 1 ; ; ; 2.;.t.& % - ; ; : ",
"O ; : $ # $ t q.T.# 1 % ; : : & > ; 1 & & 1 - ; > - $ > > $ ; 1 % - q 1 $ q % 1 : 1 & : 3 # O & ; $ - $ 1 1 O 8.>.i.O $ & > > & ",
"; ; ; - $ # r 8.E.: : 1 % & : > > ; O : 1 & > ; 3 > 6 # # 4 : 1 & - 1 1 O 1 > w > X 3 : $ 3 - - # & : % 3 o # 7.,.u.4 & - > > X ",
": - & & ; ; r 8.E.% 1 > $ 1 $ > 1 $ . $ 1 : ; $ - ; < ; - : & & - : ; 1 $ & & % - $ w 1 O & ; , - > ; # ; : - 7.:.u.; & ; - 1 > ",
"$ # # % - ; r 8.E.O 3 : & q O 1 : - 1 1 : - ; q - : & : ; % : : & : $ 3 > : 4 > 1 1 4 > # & , - & > 1 - # : - 7.,.u.# $ & O % % ",
"O # % % # O r 8.E.X > : & q O 1 > # - - : > % > ; ; * & - ; , 1 > ; % : - % : - 1 1 * & % : q % - % 1 1 - - - 7.,.u.> ; > ; 1 ; ",
"% - - & $ O r 8.E.O & > - > # ; ; O - * - - # : & % 1 % & 4 - - q > 4 1 > 1 1 3 % : # % & : w 1 4 O < - 3 1 > 7.,.u.; & - & 3 3 ",
"& % # % ; > r 8.E.> % 1 ; - - - & - 3 3 - $ & 4 : - 6 $ $ q - ; $ o > $ $ - & - : > $ - 1 1 q 1 4 % 3 o : : > 7.,.u.% ; ; X # ; ",
"$ # # & 1 3 r 8.E.1 % : % - : - > - $ : , * & & > > 3 & % 1 1 4 * & 1 $ $ % ; $ 1 1 & : 3 1 > : 1 % 1 # ; ; % 7.,.u.4 w q % - : ",
"& - : 1 1 > r 8.E.; O @ o & - & & > - 3 : O - : O - > 3 > - 1 3 @ * % O & * y > O & > > - @ $ 3 q # % > w q O 7.,.u.: & - % > ; ",
"$ % & - & $ r 8.E., > : O : : 3 ; * , : 4 1 3 1 : 1 : % & - : 1 1 1 O - : $ : O % - > 4 1 - 4 w q > ; - 1 : & 7.,.u.> X $ : * - ",
"O # % - ; - r 8.E.- * ; : 1 - - & $ % $ ; ; > > 1 1 1 1 1 ; - 1 - > ; ; : ; & X : O X $ 1 4 1 ; : > 1 : 3 3 - 7.,.u.& % # % > 4 ",
"; ; : ; % O r 8.E.$ % : 4 > - % 1 : % % # & % % > ; - 1 3 : - 1 1 - : & - > ; 1 q % $ O $ - O $ - : : $ & > - 7.,.u.> 1 O * 3 $ ",
"# $ % & $ O r 8.E.$ - ; 3 & 1 > 4 3 - ; $ : % $ : - % - 1 > ; 1 % # ; q q : % & 1 % : O O - # 4 1 , 1 & % : ; 7.,.u.q q - 1 4 O ",
"o O $ % $ # r 8.E.- ; & > & 6 1 - : & : - 3 > ; > 1 > - > 1 : - 3 3 $ - - @ ; $ 1 % ; # : 4 % 1 > - , > : : & 7.,.u.$ : ; % ; 1 ",
"- ; : ; % O r 8.E.> % % : ; q - $ - ; > > 4 1 , ; 3 1 ; 1 4 > & - w 1 3 4 1 4 X 1 ; ; & 4 q # % 1 % ; ; - ; ; 7.,.u.X o % * - 1 ",
"# % - - & $ r 8.E.1 O ; : ; 1 % ; > 1 - : : 1 : - , : ; 1 1 > : 1 q > : > 1 w 3 % ; % % 4 q > 3 w : > - % 1 4 7.,.u.& # - 3 1 & ",
"O # & * % $ r 8.E.> O 3 > & ; & : > 1 # & $ > ; 3 3 : ; : ; ; 1 : # & : : & & 3 q q # O 1 3 1 1 1 & : $ O > : 7.,.u.# & % & % o ",
"> : $ % 1 O r 8.T.$ O & O : * $ * # $ % & 6 # @ 2 > , $ , e 1 1 > q 1 > > % $ % & ; > * > 1 & 3 : O . > : % O 7.1.p.- $ ; # - 1 ",
"# $ 3 - ; & r 3.f.- # % % % $ & ; ; = * # > = : - = < 2 - o # y % q 1 % : > 3 : ; , > ; ; > $ > 1 - $ : # O # 0.:.y.> O ; & $ . ",
"O % 1 & % 1 t w.E.& $ $ : # # : & 1 : > @ & > 4 & 4 4 1 ; & > 6 % 3 1 $ > : 3 & & ; - ; & 1 $ > & : : 1 % $ # 2.:.a.: O ; - % . ",
"# > O ; : y.y.t.u.a.: & 3 $ # : + 1 - 3 & % , 2 % q > & : 2 4 # - ; > ; 4 % - # $ % % ; % 1 $ : - - - 3 > : s.y.t.t.p.O - O & > ",
"$ : o 1 <.4.5.5.5.5.0.- 1 $ # ; $ , * 4 ; = > : ; < = 6 q - : > & & ; : 3 & : % & % - : % > $ & w < $ > ; 9.1.q.q.8.8.<.& O & 1 ",
"$ @ ; ; <.w.2.8.5.4.4.$ % # % : : < * 1 ; : - - 1 : - w e - = 6 - 1 : ; & : 4 - - $ > : : > ; * w 1 & : $ 9.5.5.2.4.9.<.- ; ; # ",
"# O : # $ & $ 4 $ % # $ # % & : : ; ; 1 - > & > ; - - = > : $ = : 3 ; > O ; 1 & ; O 1 ; 1 : , & ; : - > $ $ O $ % % $ X : 1 : O ",
". - & % > # : O : $ O > & - $ & $ $ > 1 - 1 $ 1 - ; 1 & & - @ > - - O 4 O & & ; , @ 4 - 1 % ; O % ; & ; % : % # 1 & # O : & & - ",
"O $ * ; : : - & $ $ % ; 1 o - - $ % , 7 , O + > : : O > 1 : @ 4 - ; $ 1 : > $ ; 1 $ & ; $ $ - - $ O - > ; . & # 1 > O & & > # $ ",
"% & & % % & & & $ @ o & 1 - > & & + O # * - : < 4 ; O 1 4 ; # 6 1 1 % ; & & O & & # ; 1 ; & ; - $ * & : $ O % # $ ; - : : > > 4 ",
"& & % # # $ % $ & & o % & - & O : : - % % : 4 q 1 4 > : - , = % > : # & - - $ ; $ $ : 3 > - - - * 4 * : % ; - ; X % > > 1 : : , ",
"$ % % # # $ $ # % : % & O & # O & - : = $ # = > = < 1 - $ : ; O & & $ - > > - : & & ; 1 : % % & % 1 # $ $ % % ; - & % X - % - - ",
"@ # # # # $ % $ # * % % O ; % & $ @ # - : = % & & O = 3 < % = , * - - - > ; & - ; - * : > & # # : > % $ ; O $ : $ $ $ o > - - # ",
"# # O O O $ & - $ O O O O ; $ # * & ; 2 1 : : 1 * & , 2 4 & - 1 * - - $ ; % & ; & & & : 3 : # $ q 1 1 : 3 O - > o % - % : & $ O ",
"# # # O O $ % % * @ & O $ & @ # @ & : : = & : 3 - 1 3 & 1 : : ; # & : $ ; $ - : & - & ; 1 ; $ - > > : > - O & & ; 1 & O X $ % ; ",
"O # $ $ # $ @ o ; % 6 - ; % & > O # # # - 4 4 > - - & # 6 - - 3 O - 1 - 1 % & - ; : % % ; & $ , & > : 3 # & : & O ; - > : 3 % O "
};
